<svg width="20" height="17" viewBox="0 0 20 17" fill="none" xmlns="http://www.w3.org/2000/svg">
<path d="M17.1098 2.9481C17.2024 2.9481 17.2912 2.96523 17.373 2.99653L16.5114 2.47231C16.6041 2.47231 16.688 2.50995 16.7488 2.57073C16.8096 2.63152 16.8472 2.71547 16.8472 2.8081V2.80863H17.3729L16.8472 2.80927V2.9965C16.9303 2.9648 17.0192 2.9481 17.1098 2.9481ZM15.0647 3.49123L15.0649 3.49116L15.0647 3.49123Z" fill="black" stroke="black" stroke-width="2"/>
<mask id="path-2-inside-1_483_427" fill="white">
<path d="M19.2105 7.89541C19.1407 7.89541 19.0738 7.92313 19.0244 7.97248C18.9751 8.02184 18.9474 8.08877 18.9474 8.15856C18.9474 8.22836 18.9751 8.29529 19.0244 8.34465C19.0738 8.394 19.1407 8.42172 19.2105 8.42172C19.3953 8.42172 19.4737 8.50014 19.4737 8.68488V11.8428C19.4737 12.0275 19.3953 12.1059 19.2105 12.1059H15C14.8153 12.1059 14.7368 12.0275 14.7368 11.8428V9.2112C14.7368 9.02646 14.8153 8.94804 15 8.94804H18.1579C18.2277 8.94804 18.2946 8.92031 18.344 8.87096C18.3933 8.82161 18.4211 8.75467 18.4211 8.68488V5.52699C18.4211 5.04751 18.1111 4.73751 17.6316 4.73751H1.57895C0.93 4.73751 0.526316 4.33383 0.526316 3.68488C0.526316 3.03593 0.93 2.63225 1.57895 2.63225H4.25053L2.65789 3.15751C2.62388 3.16732 2.5922 3.18389 2.56474 3.20623C2.53729 3.22856 2.51462 3.25621 2.49809 3.28751C2.48157 3.31881 2.47153 3.35313 2.46857 3.3884C2.46562 3.42367 2.46981 3.45918 2.4809 3.49279C2.49198 3.52641 2.50974 3.55744 2.5331 3.58404C2.55646 3.61063 2.58494 3.63224 2.61685 3.64757C2.64875 3.66289 2.68342 3.67163 2.71878 3.67325C2.75414 3.67487 2.78946 3.66934 2.82263 3.65699L12.3589 0.513302C12.3918 0.502451 12.4221 0.485239 12.4483 0.46265C12.4745 0.440061 12.496 0.412537 12.5115 0.381649C12.5271 0.350762 12.5364 0.317115 12.5389 0.282631C12.5414 0.248147 12.5372 0.213501 12.5263 0.18067C12.5155 0.14784 12.4983 0.117468 12.4757 0.0912896C12.4531 0.0651108 12.4256 0.0436376 12.3947 0.028096C12.3638 0.0125544 12.3301 0.00324881 12.2956 0.000710463C12.2612 -0.00182789 12.2265 0.00245075 12.1937 0.0133021L5.82526 2.1133C5.81316 2.1112 5.80211 2.10593 5.78947 2.10593H1.57895C0.634737 2.10593 0 2.74067 0 3.68488V15.2638C0 16.208 0.634737 16.8428 1.57895 16.8428H17.6316C18.1111 16.8428 18.4211 16.5328 18.4211 16.0533V13.4217C18.4211 13.3519 18.3933 13.285 18.344 13.2356C18.2946 13.1863 18.2277 13.1586 18.1579 13.1586C18.0881 13.1586 18.0212 13.1863 17.9718 13.2356C17.9225 13.285 17.8947 13.3519 17.8947 13.4217V16.0533C17.8947 16.238 17.8163 16.3165 17.6316 16.3165H1.57895C0.93 16.3165 0.526316 15.9128 0.526316 15.2638V4.90172C0.796316 5.12962 1.15368 5.26383 1.57895 5.26383H17.6316C17.8163 5.26383 17.8947 5.34225 17.8947 5.52699V8.42172H15C14.5205 8.42172 14.2105 8.73172 14.2105 9.2112V11.8428C14.2105 12.3222 14.5205 12.6322 15 12.6322H19.2105C19.69 12.6322 20 12.3222 20 11.8428V8.68488C20 8.20541 19.69 7.89541 19.2105 7.89541Z"/>
</mask>
<path d="M19.2105 7.89541C19.1407 7.89541 19.0738 7.92313 19.0244 7.97248C18.9751 8.02184 18.9474 8.08877 18.9474 8.15856C18.9474 8.22836 18.9751 8.29529 19.0244 8.34465C19.0738 8.394 19.1407 8.42172 19.2105 8.42172C19.3953 8.42172 19.4737 8.50014 19.4737 8.68488V11.8428C19.4737 12.0275 19.3953 12.1059 19.2105 12.1059H15C14.8153 12.1059 14.7368 12.0275 14.7368 11.8428V9.2112C14.7368 9.02646 14.8153 8.94804 15 8.94804H18.1579C18.2277 8.94804 18.2946 8.92031 18.344 8.87096C18.3933 8.82161 18.4211 8.75467 18.4211 8.68488V5.52699C18.4211 5.04751 18.1111 4.73751 17.6316 4.73751H1.57895C0.93 4.73751 0.526316 4.33383 0.526316 3.68488C0.526316 3.03593 0.93 2.63225 1.57895 2.63225H4.25053L2.65789 3.15751C2.62388 3.16732 2.5922 3.18389 2.56474 3.20623C2.53729 3.22856 2.51462 3.25621 2.49809 3.28751C2.48157 3.31881 2.47153 3.35313 2.46857 3.3884C2.46562 3.42367 2.46981 3.45918 2.4809 3.49279C2.49198 3.52641 2.50974 3.55744 2.5331 3.58404C2.55646 3.61063 2.58494 3.63224 2.61685 3.64757C2.64875 3.66289 2.68342 3.67163 2.71878 3.67325C2.75414 3.67487 2.78946 3.66934 2.82263 3.65699L12.3589 0.513302C12.3918 0.502451 12.4221 0.485239 12.4483 0.46265C12.4745 0.440061 12.496 0.412537 12.5115 0.381649C12.5271 0.350762 12.5364 0.317115 12.5389 0.282631C12.5414 0.248147 12.5372 0.213501 12.5263 0.18067C12.5155 0.14784 12.4983 0.117468 12.4757 0.0912896C12.4531 0.0651108 12.4256 0.0436376 12.3947 0.028096C12.3638 0.0125544 12.3301 0.00324881 12.2956 0.000710463C12.2612 -0.00182789 12.2265 0.00245075 12.1937 0.0133021L5.82526 2.1133C5.81316 2.1112 5.80211 2.10593 5.78947 2.10593H1.57895C0.634737 2.10593 0 2.74067 0 3.68488V15.2638C0 16.208 0.634737 16.8428 1.57895 16.8428H17.6316C18.1111 16.8428 18.4211 16.5328 18.4211 16.0533V13.4217C18.4211 13.3519 18.3933 13.285 18.344 13.2356C18.2946 13.1863 18.2277 13.1586 18.1579 13.1586C18.0881 13.1586 18.0212 13.1863 17.9718 13.2356C17.9225 13.285 17.8947 13.3519 17.8947 13.4217V16.0533C17.8947 16.238 17.8163 16.3165 17.6316 16.3165H1.57895C0.93 16.3165 0.526316 15.9128 0.526316 15.2638V4.90172C0.796316 5.12962 1.15368 5.26383 1.57895 5.26383H17.6316C17.8163 5.26383 17.8947 5.34225 17.8947 5.52699V8.42172H15C14.5205 8.42172 14.2105 8.73172 14.2105 9.2112V11.8428C14.2105 12.3222 14.5205 12.6322 15 12.6322H19.2105C19.69 12.6322 20 12.3222 20 11.8428V8.68488C20 8.20541 19.69 7.89541 19.2105 7.89541Z" fill="black"/>
<path d="M4.25053 2.63225L4.87695 4.53161L4.25053 0.632249V2.63225ZM2.65789 3.15751L3.21207 5.0792L3.24841 5.06872L3.28432 5.05688L2.65789 3.15751ZM2.82263 3.65699L2.19647 1.75753L2.1604 1.76942L2.12481 1.78268L2.82263 3.65699ZM12.3589 0.513302L12.9851 2.41276L12.9866 2.41226L12.3589 0.513302ZM12.1937 0.0133021L12.82 1.9127L12.8213 1.91226L12.1937 0.0133021ZM5.82526 2.1133L5.48258 4.08373L5.97598 4.16953L6.45159 4.0127L5.82526 2.1133ZM0.526316 4.90172L1.81633 3.37337L-1.47368 0.596419L-1.47368 4.90172H0.526316ZM17.8947 8.42172V10.4217H19.8947V8.42172H17.8947ZM19.2105 5.89541C18.6103 5.89541 18.0347 6.13384 17.6102 6.55827L20.4387 9.3867C20.1129 9.71242 19.6712 9.89541 19.2105 9.89541V5.89541ZM17.6102 6.55827C17.1858 6.9827 16.9474 7.55834 16.9474 8.15856H20.9474C20.9474 8.6192 20.7644 9.06097 20.4387 9.3867L17.6102 6.55827ZM16.9474 8.15856C16.9474 8.75879 17.1858 9.33443 17.6102 9.75886L20.4387 6.93043C20.7644 7.25616 20.9474 7.69793 20.9474 8.15856H16.9474ZM17.6102 9.75886C18.0347 10.1833 18.6103 10.4217 19.2105 10.4217V6.42172C19.6712 6.42172 20.1129 6.60471 20.4387 6.93043L17.6102 9.75886ZM19.2105 10.4217C19.0765 10.4217 18.5004 10.4015 17.9972 9.89824C17.4939 9.395 17.4737 8.8189 17.4737 8.68488H21.4737C21.4737 8.36612 21.4142 7.65845 20.8256 7.06981C20.237 6.48118 19.5293 6.42172 19.2105 6.42172V10.4217ZM17.4737 8.68488V11.8428H21.4737V8.68488H17.4737ZM17.4737 11.8428C17.4737 11.7088 17.4939 11.1327 17.9972 10.6294C18.5004 10.1262 19.0765 10.1059 19.2105 10.1059V14.1059C19.5293 14.1059 20.237 14.0465 20.8256 13.4578C21.4142 12.8692 21.4737 12.1615 21.4737 11.8428H17.4737ZM19.2105 10.1059H15V14.1059H19.2105V10.1059ZM15 10.1059C15.134 10.1059 15.7101 10.1262 16.2134 10.6294C16.7166 11.1327 16.7368 11.7088 16.7368 11.8428H12.7368C12.7368 12.1615 12.7963 12.8692 13.3849 13.4578C13.9736 14.0465 14.6812 14.1059 15 14.1059V10.1059ZM16.7368 11.8428V9.2112H12.7368V11.8428H16.7368ZM16.7368 9.2112C16.7368 9.34522 16.7166 9.92131 16.2134 10.4246C15.7101 10.9278 15.134 10.948 15 10.948V6.94804C14.6812 6.94804 13.9736 7.00749 13.3849 7.59613C12.7963 8.18476 12.7368 8.89244 12.7368 9.2112H16.7368ZM15 10.948H18.1579V6.94804H15V10.948ZM18.1579 10.948C18.7581 10.948 19.3338 10.7096 19.7582 10.2852L16.9298 7.45675C17.2555 7.13102 17.6973 6.94804 18.1579 6.94804V10.948ZM19.7582 10.2852C20.1826 9.86075 20.4211 9.2851 20.4211 8.68488H16.4211C16.4211 8.22425 16.604 7.78247 16.9298 7.45675L19.7582 10.2852ZM20.4211 8.68488V5.52699H16.4211V8.68488H20.4211ZM20.4211 5.52699C20.4211 4.84827 20.1929 4.1108 19.6203 3.53823C19.0478 2.96566 18.3103 2.73751 17.6316 2.73751V6.73751C17.4323 6.73751 17.0896 6.66436 16.7919 6.36666C16.4942 6.06896 16.4211 5.72623 16.4211 5.52699H20.4211ZM17.6316 2.73751H1.57895V6.73751H17.6316V2.73751ZM1.57895 2.73751C1.67386 2.73751 1.95862 2.77547 2.22349 3.04034C2.48836 3.30521 2.52632 3.58997 2.52632 3.68488H-1.47368C-1.47368 4.42874 -1.23388 5.23982 -0.604937 5.86877C0.0240091 6.49771 0.835087 6.73751 1.57895 6.73751V2.73751ZM2.52632 3.68488C2.52632 3.77979 2.48836 4.06456 2.22349 4.32942C1.95862 4.59429 1.67386 4.63225 1.57895 4.63225V0.632249C0.835087 0.632249 0.0240091 0.87205 -0.604937 1.501C-1.23388 2.12994 -1.47368 2.94102 -1.47368 3.68488H2.52632ZM1.57895 4.63225H4.25053V0.632249H1.57895V4.63225ZM3.6241 0.732884L2.03147 1.25815L3.28432 5.05688L4.87695 4.53161L3.6241 0.732884ZM2.10372 1.23582C1.81124 1.32017 1.53877 1.46265 1.30263 1.65475L3.82686 4.7577C3.64563 4.90512 3.43653 5.01447 3.21207 5.0792L2.10372 1.23582ZM1.30263 1.65475C1.06649 1.84685 0.87153 2.08462 0.729418 2.35381L4.26677 4.22121C4.1577 4.4278 4.00808 4.61027 3.82686 4.7577L1.30263 1.65475ZM0.729418 2.35381C0.587306 2.62301 0.500962 2.91811 0.475553 3.22146L4.46159 3.55534C4.44209 3.78814 4.37583 4.01462 4.26677 4.22121L0.729418 2.35381ZM0.475553 3.22146C0.450143 3.5248 0.486192 3.83016 0.581538 4.11924L4.38026 2.86635C4.45343 3.0882 4.48109 3.32254 4.46159 3.55534L0.475553 3.22146ZM0.581538 4.11924C0.676887 4.40833 0.829575 4.67522 1.03046 4.90392L4.03573 2.26415C4.1899 2.43967 4.30708 2.64448 4.38026 2.86635L0.581538 4.11924ZM1.03046 4.90392C1.23135 5.13262 1.47632 5.31845 1.7507 5.45028L3.48299 1.84485C3.69356 1.94602 3.88156 2.08863 4.03573 2.26415L1.03046 4.90392ZM1.7507 5.45028C2.02508 5.58211 2.32324 5.65724 2.62732 5.67116L2.81024 1.67534C3.0436 1.68602 3.27242 1.74368 3.48299 1.84485L1.7507 5.45028ZM2.62732 5.67116C2.93141 5.68508 3.23518 5.63751 3.52046 5.5313L2.12481 1.78268C2.34374 1.70116 2.57687 1.66466 2.81024 1.67534L2.62732 5.67116ZM3.44879 5.55644L12.9851 2.41275L11.7328 -1.38615L2.19647 1.75753L3.44879 5.55644ZM12.9866 2.41226C13.2688 2.31898 13.5299 2.17103 13.7549 1.97687L11.1417 -1.05157C11.3144 -1.20055 11.5147 -1.31408 11.7313 -1.38566L12.9866 2.41226ZM13.7549 1.97687C13.9799 1.78269 14.1645 1.5461 14.2981 1.2806L10.7249 -0.517298C10.8274 -0.721026 10.9691 -0.902571 11.1417 -1.05157L13.7549 1.97687ZM14.2981 1.2806C14.4317 1.01512 14.5117 0.725908 14.5335 0.429453L10.5443 0.13581C10.561 -0.0916771 10.6224 -0.3136 10.7249 -0.517298L14.2981 1.2806ZM14.5335 0.429453C14.5553 0.132999 14.5185 -0.164814 14.4253 -0.446986L10.6274 0.808327C10.5558 0.591816 10.5276 0.363296 10.5443 0.13581L14.5335 0.429453ZM14.4253 -0.446986C14.332 -0.729168 14.1841 -0.990243 13.9899 -1.21529L10.9614 1.39787C10.8124 1.22518 10.6989 1.02485 10.6274 0.808327L14.4253 -0.446986ZM13.9899 -1.21529C13.7957 -1.44032 13.5591 -1.6249 13.2936 -1.75849L11.4957 1.81468C11.292 1.71218 11.1104 1.57054 10.9614 1.39787L13.9899 -1.21529ZM13.2936 -1.75849C13.0281 -1.89209 12.7389 -1.97207 12.4425 -1.99389L12.1488 1.99531C11.9214 1.97857 11.6995 1.91719 11.4957 1.81468L13.2936 -1.75849ZM12.4425 -1.99389C12.146 -2.01571 11.8482 -1.97893 11.566 -1.88566L12.8213 1.91226C12.6048 1.98384 12.3763 2.01206 12.1488 1.99531L12.4425 -1.99389ZM11.5674 -1.8861L5.19893 0.213905L6.45159 4.0127L12.82 1.9127L11.5674 -1.8861ZM6.16795 0.142878C6.24983 0.15712 6.31224 0.173565 6.3357 0.179874C6.34729 0.18299 6.35685 0.185702 6.35387 0.184865C6.35375 0.18483 6.35034 0.183869 6.34657 0.182818C6.34246 0.181674 6.33606 0.179902 6.32829 0.177806C6.27857 0.164399 6.06646 0.105934 5.78947 0.105934V4.10593C5.52512 4.10593 5.32485 4.0501 5.28684 4.03985C5.2758 4.03687 5.26644 4.03422 5.27003 4.03523C5.27045 4.03534 5.27397 4.03634 5.27804 4.03747C5.28238 4.03868 5.28898 4.0405 5.29698 4.04265C5.32631 4.05054 5.39464 4.06843 5.48258 4.08373L6.16795 0.142878ZM5.78947 0.105934H1.57895V4.10593H5.78947V0.105934ZM1.57895 0.105934C0.648142 0.105934 -0.279187 0.427483 -0.978819 1.12711C-1.67845 1.82675 -2 2.75407 -2 3.68488H2C2 3.67148 1.99582 3.80933 1.84961 3.95554C1.7034 4.10175 1.56554 4.10593 1.57895 4.10593V0.105934ZM-2 3.68488V15.2638H2V3.68488H-2ZM-2 15.2638C-2 16.1946 -1.67845 17.122 -0.978819 17.8216C-0.279187 18.5212 0.648142 18.8428 1.57895 18.8428V14.8428C1.56554 14.8428 1.7034 14.847 1.84961 14.9932C1.99582 15.1394 2 15.2772 2 15.2638H-2ZM1.57895 18.8428H17.6316V14.8428H1.57895V18.8428ZM17.6316 18.8428C18.3103 18.8428 19.0478 18.6146 19.6203 18.0421C20.1929 17.4695 20.4211 16.732 20.4211 16.0533H16.4211C16.4211 15.8541 16.4942 15.5113 16.7919 15.2136C17.0896 14.9159 17.4323 14.8428 17.6316 14.8428V18.8428ZM20.4211 16.0533V13.4217H16.4211V16.0533H20.4211ZM20.4211 13.4217C20.4211 12.8215 20.1826 12.2459 19.7582 11.8214L16.9298 14.6499C16.604 14.3241 16.4211 13.8824 16.4211 13.4217H20.4211ZM19.7582 11.8214C19.3338 11.397 18.7581 11.1586 18.1579 11.1586V15.1586C17.6973 15.1586 17.2555 14.9756 16.9298 14.6499L19.7582 11.8214ZM18.1579 11.1586C17.5577 11.1586 16.982 11.397 16.5576 11.8214L19.386 14.6499C19.0603 14.9756 18.6185 15.1586 18.1579 15.1586V11.1586ZM16.5576 11.8214C16.1332 12.2459 15.8947 12.8215 15.8947 13.4217H19.8947C19.8947 13.8824 19.7118 14.3241 19.386 14.6499L16.5576 11.8214ZM15.8947 13.4217V16.0533H19.8947V13.4217H15.8947ZM15.8947 16.0533C15.8947 15.9193 15.915 15.3432 16.4182 14.8399C16.9215 14.3367 17.4976 14.3165 17.6316 14.3165V18.3165C17.9503 18.3165 18.658 18.257 19.2466 17.6684C19.8353 17.0797 19.8947 16.3721 19.8947 16.0533H15.8947ZM17.6316 14.3165H1.57895V18.3165H17.6316V14.3165ZM1.57895 14.3165C1.67386 14.3165 1.95862 14.3544 2.22349 14.6193C2.48836 14.8842 2.52632 15.1689 2.52632 15.2638H-1.47368C-1.47368 16.0077 -1.23388 16.8188 -0.604937 17.4477C0.0240091 18.0767 0.835087 18.3165 1.57895 18.3165V14.3165ZM2.52632 15.2638V4.90172H-1.47368V15.2638H2.52632ZM-0.763698 6.43008C-0.107112 6.98427 0.716301 7.26383 1.57895 7.26383V3.26383C1.57825 3.26383 1.60834 3.26405 1.65846 3.2817C1.70912 3.29953 1.76471 3.3298 1.81633 3.37337L-0.763698 6.43008ZM1.57895 7.26383H17.6316V3.26383H1.57895V7.26383ZM17.6316 7.26383C17.4976 7.26383 16.9215 7.24358 16.4182 6.74034C15.915 6.2371 15.8947 5.66101 15.8947 5.52699H19.8947C19.8947 5.20823 19.8353 4.50055 19.2466 3.91192C18.658 3.32328 17.9503 3.26383 17.6316 3.26383V7.26383ZM15.8947 5.52699V8.42172H19.8947V5.52699H15.8947ZM17.8947 6.42172H15V10.4217H17.8947V6.42172ZM15 6.42172C14.3213 6.42172 13.5838 6.64987 13.0112 7.22244C12.4387 7.79501 12.2105 8.53248 12.2105 9.2112H16.2105C16.2105 9.41044 16.1374 9.75317 15.8397 10.0509C15.542 10.3486 15.1992 10.4217 15 10.4217V6.42172ZM12.2105 9.2112V11.8428H16.2105V9.2112H12.2105ZM12.2105 11.8428C12.2105 12.5215 12.4387 13.259 13.0112 13.8315C13.5838 14.4041 14.3213 14.6322 15 14.6322V10.6322C15.1992 10.6322 15.542 10.7054 15.8397 11.0031C16.1374 11.3008 16.2105 11.6435 16.2105 11.8428H12.2105ZM15 14.6322H19.2105V10.6322H15V14.6322ZM19.2105 14.6322C19.8892 14.6322 20.6267 14.4041 21.1993 13.8315C21.7719 13.259 22 12.5215 22 11.8428H18C18 11.6435 18.0732 11.3008 18.3709 11.0031C18.6686 10.7054 19.0113 10.6322 19.2105 10.6322V14.6322ZM22 11.8428V8.68488H18V11.8428H22ZM22 8.68488C22 8.00616 21.7719 7.2687 21.1993 6.69613C20.6267 6.12356 19.8892 5.89541 19.2105 5.89541V9.89541C19.0113 9.89541 18.6686 9.82226 18.3709 9.52455C18.0732 9.22685 18 8.88413 18 8.68488H22Z" fill="black" mask="url(#path-2-inside-1_483_427)"/>
<path d="M16.8685 10.527C16.8685 10.5416 16.8568 10.5534 16.8422 10.5534C16.8277 10.5534 16.8159 10.5416 16.8159 10.527C16.8159 10.5125 16.8277 10.5007 16.8422 10.5007C16.8568 10.5007 16.8685 10.5125 16.8685 10.527Z" fill="black" stroke="black"/>
</svg>
