<svg width="11" height="7" viewBox="0 0 11 7" fill="none" xmlns="http://www.w3.org/2000/svg">
<path d="M10.1841 0.326201L5.4985 5.1982L0.812875 0.326201C0.729158 0.238979 0.616775 0.190148 0.49975 0.190148C0.382724 0.190148 0.270341 0.238979 0.186625 0.326201C0.146089 0.368565 0.113886 0.419131 0.0919019 0.474937C0.0699175 0.530743 0.0585937 0.590668 0.0585938 0.651201C0.0585937 0.711734 0.0699175 0.771658 0.0919019 0.827464C0.113886 0.88327 0.146089 0.933836 0.186625 0.976201L5.17131 6.1602C5.25885 6.25121 5.37626 6.30215 5.4985 6.30215C5.62074 6.30215 5.73815 6.25121 5.82569 6.1602L10.8104 0.977201C10.8512 0.934805 10.8836 0.884115 10.9058 0.828124C10.928 0.772132 10.9394 0.711975 10.9394 0.651201C10.9394 0.590427 10.928 0.530269 10.9058 0.474277C10.8836 0.418286 10.8512 0.367597 10.8104 0.325201C10.7267 0.237978 10.6143 0.189148 10.4972 0.189148C10.3802 0.189148 10.2678 0.237978 10.1841 0.325201V0.326201Z" fill="#465461"/>
</svg>
