<svg width="18" height="18" viewBox="0 0 18 18" fill="none" xmlns="http://www.w3.org/2000/svg">
<g clip-path="url(#clip0_531_585)">
<path d="M12.5953 10.1999C12.7389 9.81622 12.8117 9.40965 12.8103 8.99995C12.8103 8.09025 12.4489 7.21782 11.8057 6.57457C11.1624 5.93132 10.29 5.56995 9.38031 5.56995C8.97566 5.57042 8.57434 5.64323 8.19531 5.78495L9.00031 6.61495C9.12268 6.59537 9.24639 6.58534 9.37031 6.58495C10.0135 6.5836 10.6312 6.83682 11.0883 7.28929C11.5455 7.74177 11.805 8.35675 11.8103 8.99995C11.8099 9.12387 11.7999 9.24757 11.7803 9.36995L12.5953 10.1999Z" fill="#C4C4C4"/>
<path d="M17.1452 8.76501C15.4602 5.65001 12.5052 3.76501 9.23523 3.76501C8.34491 3.7671 7.46057 3.91056 6.61523 4.19001L7.42023 5.00001C8.01316 4.84678 8.62283 4.76784 9.23523 4.76501C12.0502 4.76501 14.6102 6.33501 16.1352 8.98001C15.5758 9.96132 14.8342 10.8268 13.9502 11.53L14.6602 12.24C15.6833 11.4147 16.5329 10.3951 17.1602 9.24001L17.2902 9.00001L17.1452 8.76501Z" fill="#C4C4C4"/>
<path d="M2.43445 2.89002L4.66445 5.12002C3.25491 6.02758 2.1029 7.2829 1.31945 8.76502L1.18945 9.00002L1.31945 9.24002C3.00445 12.355 5.95945 14.24 9.22945 14.24C10.5058 14.2398 11.7655 13.9509 12.9145 13.395L15.4145 15.895L16.2895 15.145L3.28945 2.14502L2.43445 2.89002ZM7.30945 7.76502L10.6345 11.09C10.2588 11.3226 9.82628 11.4471 9.38445 11.45C9.06342 11.45 8.74555 11.3865 8.44914 11.2632C8.15273 11.1399 7.88363 10.9592 7.65732 10.7315C7.43102 10.5038 7.25197 10.2336 7.13048 9.93646C7.009 9.6393 6.94748 9.32105 6.94945 9.00002C6.95509 8.5633 7.07954 8.13636 7.30945 7.76502ZM6.58445 7.04002C6.11667 7.69972 5.89742 8.50367 5.96551 9.30951C6.03361 10.1154 6.38466 10.8711 6.95651 11.443C7.52836 12.0148 8.28411 12.3659 9.08996 12.434C9.89581 12.5021 10.6998 12.2828 11.3595 11.815L12.1595 12.615C11.2333 13.0109 10.2366 13.215 9.22945 13.215C6.41445 13.215 3.85445 11.645 2.32945 9.00002C3.06131 7.70413 4.11531 6.61912 5.38945 5.85002L6.58445 7.04002Z" fill="#C4C4C4"/>
</g>
<defs>
<clipPath id="clip0_531_585">
<rect width="18" height="18" fill="white"/>
</clipPath>
</defs>
</svg>
