<svg width="30" height="30" viewBox="0 0 30 30" fill="none" xmlns="http://www.w3.org/2000/svg">
<rect width="30" height="30" rx="15" fill="#F80000"/>
<path d="M8.29683 8.29635C8.6874 7.90578 9.32056 7.90578 9.71112 8.29635L15.004 13.5892L20.2968 8.29635C20.6874 7.90578 21.3206 7.90578 21.7111 8.29635C22.1015 8.68692 22.1015 9.32007 21.7111 9.71063L16.4183 15.0035L21.7111 20.2963C22.1015 20.6869 22.1015 21.3201 21.7111 21.7106C21.3205 22.101 20.6874 22.101 20.2968 21.7106L15.004 16.4178L9.71112 21.7106C9.32055 22.101 8.68739 22.101 8.29683 21.7106C7.90626 21.3201 7.90626 20.6869 8.29683 20.2963L13.5897 15.0035L8.29683 9.71063C7.90626 9.32006 7.90626 8.6869 8.29683 8.29635Z" fill="#F1F5F9"/>
</svg>
