<svg width="26" height="26" viewBox="0 0 26 26" fill="none" xmlns="http://www.w3.org/2000/svg">
<path d="M18.4759 16.9968C18.4759 16.9968 11.6176 15.0443 10.4966 12.8874C9.37557 10.7306 10.8812 9.28939 13.0636 10.1364C15.246 10.9833 18.4759 16.9968 18.4759 16.9968Z" fill="white"/>
<path d="M5.702 2.76365C7.91306 1.21373 10.5822 0.45483 13.278 0.609637L13.0116 5.24771C11.3595 5.15284 9.72371 5.61794 8.36864 6.56781L5.702 2.76365Z" fill="white"/>
<path d="M0.721418 10.8189C1.15708 7.89929 2.65359 5.2427 4.9248 3.35711L7.89233 6.93152C6.50041 8.08712 5.58326 9.71522 5.31626 11.5045L0.721418 10.8189Z" fill="white"/>
<path d="M3.68761 20.6365C2.63092 19.4674 1.81484 18.1016 1.28598 16.6172C0.75711 15.1327 0.525809 13.5586 0.605281 11.9847L5.24509 12.219C5.19638 13.1836 5.33814 14.1483 5.66226 15.058C5.98638 15.9678 6.48651 16.8048 7.13411 17.5213L3.68761 20.6365Z" fill="white"/>
<path d="M14.2483 0.705025C16.9225 1.07816 19.3928 2.34233 21.2597 4.29316L17.9033 7.50519C16.7592 6.30961 15.2452 5.53485 13.6063 5.30617L14.2483 0.705025Z" fill="white"/>
<path d="M21.9158 5.0381C23.6151 7.13655 24.557 9.74678 24.5892 12.4468L19.9438 12.5022C19.924 10.8475 19.3468 9.24778 18.3054 7.96172L21.9158 5.0381Z" fill="white"/>
<path d="M24.5747 13.1951C24.4386 15.8918 23.3969 18.4638 21.618 20.4953L18.1229 17.4348C19.2131 16.1898 19.8515 14.6135 19.9349 12.9608L24.5747 13.1951Z" fill="white"/>
</svg>
