<svg width="15" height="16" viewBox="0 0 15 16" fill="none" xmlns="http://www.w3.org/2000/svg">
<path d="M12.1841 5.3262L7.4985 10.1982L2.81287 5.3262C2.72916 5.23898 2.61678 5.19015 2.49975 5.19015C2.38272 5.19015 2.27034 5.23898 2.18662 5.3262C2.14609 5.36857 2.11389 5.41913 2.0919 5.47494C2.06992 5.53074 2.05859 5.59067 2.05859 5.6512C2.05859 5.71173 2.06992 5.77166 2.0919 5.82746C2.11389 5.88327 2.14609 5.93384 2.18662 5.9762L7.17131 11.1602C7.25885 11.2512 7.37626 11.3022 7.4985 11.3022C7.62074 11.3022 7.73815 11.2512 7.82569 11.1602L12.8104 5.9772C12.8512 5.9348 12.8836 5.88411 12.9058 5.82812C12.928 5.77213 12.9394 5.71197 12.9394 5.6512C12.9394 5.59043 12.928 5.53027 12.9058 5.47428C12.8836 5.41829 12.8512 5.3676 12.8104 5.3252C12.7267 5.23798 12.6143 5.18915 12.4972 5.18915C12.3802 5.18915 12.2678 5.23798 12.1841 5.3252V5.3262Z" fill="#465461"/>
</svg>
