<svg width="20" height="24" viewBox="0 0 20 24" fill="none" xmlns="http://www.w3.org/2000/svg">
<path d="M8.59154 0.887185C8.52956 0.901269 8.39154 0.912537 8.28731 0.912537C8.18027 0.915354 8.01125 0.929438 7.90703 0.943523C7.8028 0.960424 7.51548 0.999861 7.26759 1.03085C6.72393 1.10127 6.47604 1.14071 6.05632 1.22803C5.98027 1.24493 5.86196 1.26465 5.79717 1.2731C5.72956 1.28155 5.67604 1.29845 5.67604 1.31254C5.67604 1.32662 5.6197 1.33789 5.54928 1.33789C5.47886 1.33789 5.42252 1.34916 5.42252 1.36606C5.42252 1.38014 5.37182 1.39423 5.30985 1.39423C5.24787 1.39423 5.19717 1.40549 5.19717 1.4224C5.19717 1.43648 5.16055 1.45057 5.11548 1.45057C5.06759 1.45057 5.02252 1.46183 5.01407 1.47873C5.00562 1.49282 4.95492 1.5069 4.90139 1.5069C4.84787 1.5069 4.79717 1.51817 4.78872 1.53507C4.78027 1.54916 4.74083 1.56324 4.70421 1.56324C4.66759 1.56324 4.63097 1.57451 4.62252 1.58578C4.61407 1.59986 4.5352 1.62803 4.44506 1.64775C4.35492 1.66747 4.27041 1.69564 4.25351 1.70409C4.23942 1.71535 4.17463 1.74071 4.11266 1.76042C3.99717 1.79704 3.70139 1.91535 3.61407 1.96042C3.5859 1.97451 3.54365 1.98578 3.52111 1.98578C3.49858 1.98578 3.47886 1.99704 3.47886 2.01395C3.47886 2.02803 3.44787 2.04211 3.40844 2.04211C3.369 2.04211 3.33801 2.05338 3.33801 2.07028C3.33801 2.08437 3.31266 2.09845 3.28168 2.09845C3.25069 2.09845 3.22534 2.10972 3.22534 2.12662C3.22534 2.14071 3.19435 2.15479 3.15492 2.15479C3.11548 2.15479 3.08449 2.16606 3.08449 2.18296C3.08449 2.19704 3.05914 2.21113 3.02816 2.21113C2.99717 2.21113 2.97182 2.21958 2.97182 2.23366C2.97182 2.24493 2.93238 2.27028 2.88449 2.29282C2.7859 2.33507 2.49576 2.50409 2.44506 2.54916C2.42534 2.56324 2.37745 2.59141 2.33801 2.61113C2.29858 2.62803 2.26759 2.65338 2.26759 2.66747C2.26759 2.67873 2.24506 2.69 2.21689 2.69C2.18872 2.69 2.14928 2.71535 2.12675 2.74634C2.10421 2.77733 2.07041 2.80268 2.05069 2.80268C2.03097 2.80268 2.01407 2.81395 2.01407 2.83085C2.01407 2.84493 1.99435 2.85902 1.97182 2.85902C1.94928 2.85902 1.92956 2.87028 1.92956 2.88719C1.92956 2.90127 1.91548 2.91535 1.90139 2.91535C1.83661 2.91535 1.1859 3.56888 1.11266 3.70409C1.09294 3.74071 1.05351 3.79704 1.02534 3.82803C0.994352 3.85902 0.971817 3.90127 0.971817 3.92099C0.971817 3.94071 0.96055 3.95761 0.943648 3.95761C0.929564 3.95761 0.915479 3.97733 0.915479 3.99986C0.915479 4.0224 0.904212 4.04211 0.88731 4.04211C0.873226 4.04211 0.859141 4.0731 0.859141 4.11254C0.859141 4.15197 0.847874 4.18296 0.830972 4.18296C0.816888 4.18296 0.802803 4.21395 0.802803 4.25338C0.802803 4.29282 0.791536 4.32381 0.777451 4.32381C0.763367 4.32381 0.726747 4.38014 0.692944 4.45057L0.633789 4.57733L0.645057 11.9069C0.65069 15.9407 0.664775 19.2985 0.676043 19.3717C0.68731 19.4478 0.707029 19.5069 0.721113 19.5069C0.735198 19.5069 0.746465 19.5435 0.746465 19.5914C0.746465 19.6365 0.76055 19.6759 0.774634 19.6759C0.791536 19.6759 0.802803 19.7069 0.802803 19.7463C0.802803 19.7858 0.816888 19.8168 0.830972 19.8168C0.847874 19.8168 0.859141 19.8421 0.859141 19.8731C0.859141 19.9041 0.873226 19.9294 0.88731 19.9294C0.904212 19.9294 0.915479 19.9548 0.915479 19.9858C0.915479 20.0168 0.929564 20.0421 0.943648 20.0421C0.96055 20.0421 0.971817 20.059 0.971817 20.0787C0.971817 20.0985 0.994352 20.1407 1.02534 20.1717C1.05351 20.2027 1.09294 20.259 1.11266 20.2956C1.169 20.3999 1.49294 20.7407 1.74647 20.9576C1.8197 21.0196 1.89294 21.0872 1.91548 21.1069C1.9352 21.1238 1.96618 21.1407 1.98308 21.1407C1.99999 21.1407 2.01407 21.152 2.01407 21.1689C2.01407 21.183 2.02816 21.197 2.04224 21.197C2.05914 21.197 2.09858 21.2224 2.13238 21.2534C2.16618 21.2844 2.21125 21.3097 2.23097 21.3097C2.25069 21.3097 2.26759 21.321 2.26759 21.3323C2.26759 21.3463 2.29858 21.3717 2.33801 21.3886C2.37745 21.4083 2.42534 21.4365 2.44506 21.4506C2.49576 21.4956 2.7859 21.6647 2.88449 21.7069C2.93238 21.7294 2.97182 21.7548 2.97182 21.7661C2.97182 21.7801 2.99717 21.7886 3.02816 21.7886C3.05914 21.7886 3.08449 21.7999 3.08449 21.8168C3.08449 21.8308 3.11548 21.8449 3.15492 21.8449C3.19435 21.8449 3.22534 21.8562 3.22534 21.8731C3.22534 21.8872 3.25069 21.9013 3.28168 21.9013C3.31266 21.9013 3.33801 21.9125 3.33801 21.9294C3.33801 21.9435 3.369 21.9576 3.40844 21.9576C3.44787 21.9576 3.47886 21.9689 3.47886 21.9858C3.47886 21.9999 3.49858 22.0139 3.52111 22.0139C3.54365 22.0139 3.5859 22.0252 3.61407 22.0393C3.76618 22.1182 4.27323 22.3041 4.47323 22.3576C4.54647 22.3773 4.60562 22.4027 4.60562 22.4139C4.60562 22.4252 4.64224 22.4365 4.68731 22.4365C4.7352 22.4365 4.78027 22.4506 4.78872 22.4647C4.79717 22.4787 4.84787 22.4928 4.90139 22.4928C4.95492 22.4928 5.00562 22.5041 5.01407 22.521C5.02252 22.5351 5.06759 22.5492 5.11548 22.5492C5.16055 22.5492 5.19717 22.5604 5.19717 22.5773C5.19717 22.5914 5.24787 22.6055 5.30985 22.6055C5.37182 22.6055 5.42252 22.6168 5.42252 22.6337C5.42252 22.6478 5.47886 22.6618 5.54928 22.6618C5.6197 22.6618 5.67604 22.6731 5.67604 22.6872C5.67604 22.7013 5.72956 22.7182 5.79717 22.7266C5.86196 22.7351 5.9859 22.7576 6.07041 22.7745C6.15492 22.7914 6.28168 22.8111 6.3521 22.8196C6.42252 22.828 6.50421 22.8449 6.5352 22.859C6.56618 22.8731 6.64787 22.89 6.7183 22.8956C6.78872 22.9041 7.08731 22.9435 7.38027 22.983C7.67604 23.0252 8.09294 23.0731 8.30985 23.0928C8.82534 23.1351 11.1746 23.1351 11.6901 23.0928C12.2845 23.0421 13.3267 22.8928 13.9296 22.7745C14.0141 22.7576 14.138 22.7351 14.2056 22.7266C14.2704 22.7182 14.3239 22.7013 14.3239 22.6872C14.3239 22.6731 14.3803 22.6618 14.4507 22.6618C14.5211 22.6618 14.5775 22.6478 14.5775 22.6337C14.5775 22.6168 14.6282 22.6055 14.6901 22.6055C14.7521 22.6055 14.8028 22.5914 14.8028 22.5773C14.8028 22.5604 14.8451 22.5492 14.8986 22.5492C14.9521 22.5492 15.0056 22.5379 15.0141 22.521C15.0225 22.5069 15.0676 22.4928 15.1127 22.4928C15.1577 22.4928 15.2028 22.4787 15.2113 22.4647C15.2197 22.4478 15.2648 22.4365 15.3127 22.4365C15.3577 22.4365 15.3944 22.4252 15.3944 22.4139C15.3944 22.4027 15.4535 22.3745 15.5296 22.3548C15.7014 22.3069 16.0225 22.1914 16.1746 22.1238C16.2422 22.0956 16.3127 22.0703 16.3352 22.0703C16.3577 22.0703 16.3859 22.0562 16.3944 22.0421C16.4028 22.0252 16.4366 22.0139 16.4676 22.0139C16.4958 22.0139 16.5211 21.9999 16.5211 21.9858C16.5211 21.9689 16.5521 21.9576 16.5915 21.9576C16.631 21.9576 16.662 21.9435 16.662 21.9294C16.662 21.9125 16.6873 21.9013 16.7183 21.9013C16.7493 21.9013 16.7746 21.8872 16.7746 21.8731C16.7746 21.8562 16.8056 21.8449 16.8451 21.8449C16.8845 21.8449 16.9155 21.8308 16.9155 21.8168C16.9155 21.7999 16.9408 21.7886 16.9718 21.7886C17.0028 21.7886 17.0282 21.7745 17.0282 21.7604C17.0282 21.7435 17.0535 21.7323 17.0845 21.7323C17.1155 21.7323 17.1408 21.7182 17.1408 21.7041C17.1408 21.6872 17.1521 21.6759 17.1662 21.6759C17.1915 21.6759 17.4986 21.4985 17.5549 21.4506C17.5746 21.4365 17.6225 21.4083 17.662 21.3886C17.7014 21.3717 17.7324 21.3463 17.7324 21.3323C17.7324 21.321 17.7493 21.3097 17.769 21.3097C17.7887 21.3097 17.8338 21.2844 17.8676 21.2534C17.9014 21.2224 17.9408 21.197 17.9577 21.197C17.9718 21.197 17.9859 21.183 17.9859 21.1689C17.9859 21.152 18 21.1407 18.0169 21.1407C18.0338 21.1407 18.062 21.1238 18.0845 21.1041C18.1042 21.0872 18.169 21.0308 18.2253 20.9858C18.4253 20.8224 18.831 20.3999 18.8873 20.2956C18.907 20.259 18.9465 20.2027 18.9746 20.1717C19.0056 20.1407 19.0282 20.0985 19.0282 20.0787C19.0282 20.059 19.0422 20.0421 19.0563 20.0421C19.0732 20.0421 19.0845 20.0168 19.0845 19.9858C19.0845 19.9548 19.0986 19.9294 19.1127 19.9294C19.1296 19.9294 19.1408 19.9041 19.1408 19.8731C19.1408 19.8421 19.1549 19.8168 19.169 19.8168C19.1859 19.8168 19.1972 19.7858 19.1972 19.7463C19.1972 19.7069 19.2113 19.6759 19.2253 19.6759C19.2422 19.6759 19.2535 19.6365 19.2535 19.5914C19.2535 19.5435 19.2648 19.5069 19.2789 19.5069C19.2929 19.5069 19.3127 19.4478 19.3239 19.3717C19.3352 19.2985 19.3493 15.9407 19.3549 11.9069L19.3662 4.57733L19.307 4.45057C19.2732 4.38014 19.2366 4.32381 19.2225 4.32381C19.2084 4.32381 19.1972 4.29282 19.1972 4.25338C19.1972 4.21395 19.1859 4.18296 19.169 4.18296C19.1549 4.18296 19.1408 4.15761 19.1408 4.12662C19.1408 4.09564 19.1296 4.07028 19.1127 4.07028C19.0986 4.07028 19.0845 4.04493 19.0845 4.01395C19.0845 3.98296 19.0732 3.95761 19.0563 3.95761C19.0422 3.95761 19.0282 3.94071 19.0282 3.92099C19.0282 3.90127 19.0056 3.85902 18.9746 3.82803C18.9465 3.79704 18.907 3.74071 18.8873 3.70409C18.8451 3.62521 18.7887 3.56324 18.5296 3.30127C18.2282 3.00268 18.1324 2.91535 18.0986 2.91535C18.0845 2.91535 18.0704 2.90127 18.0704 2.88719C18.0704 2.87028 18.0507 2.85902 18.0282 2.85902C18.0056 2.85902 17.9859 2.84493 17.9859 2.83085C17.9859 2.81395 17.969 2.80268 17.9493 2.80268C17.9296 2.80268 17.8958 2.77733 17.8732 2.74634C17.8507 2.71535 17.8113 2.69 17.7831 2.69C17.7549 2.69 17.7324 2.67873 17.7324 2.66465C17.7324 2.65057 17.707 2.62803 17.676 2.61958C17.6451 2.61113 17.6028 2.58578 17.5859 2.56888C17.538 2.5238 17.2366 2.34634 17.1211 2.29282C17.0704 2.2731 17.0282 2.24493 17.0282 2.23366C17.0282 2.21958 17.0028 2.21113 16.9718 2.21113C16.9408 2.21113 16.9155 2.19704 16.9155 2.18296C16.9155 2.16606 16.8845 2.15479 16.8451 2.15479C16.8056 2.15479 16.7746 2.14071 16.7746 2.12662C16.7746 2.10972 16.7493 2.09845 16.7183 2.09845C16.6873 2.09845 16.662 2.08437 16.662 2.07028C16.662 2.05338 16.631 2.04211 16.5915 2.04211C16.5521 2.04211 16.5211 2.02803 16.5211 2.01395C16.5211 1.99704 16.5014 1.98578 16.4789 1.98578C16.4563 1.98578 16.4141 1.97451 16.3859 1.96042C16.2986 1.91535 16.0028 1.79704 15.8873 1.76042C15.8253 1.74071 15.7634 1.71535 15.7465 1.70409C15.7324 1.69564 15.6451 1.66747 15.5577 1.64775C15.4676 1.62803 15.3944 1.59986 15.3944 1.58578C15.3944 1.57451 15.3577 1.56324 15.3127 1.56324C15.2648 1.56324 15.2197 1.54916 15.2113 1.53507C15.2028 1.51817 15.1577 1.5069 15.1127 1.5069C15.0676 1.5069 15.0225 1.49282 15.0141 1.47873C15.0056 1.46183 14.9521 1.45057 14.8986 1.45057C14.8451 1.45057 14.8028 1.43648 14.8028 1.4224C14.8028 1.40549 14.7521 1.39423 14.6901 1.39423C14.6282 1.39423 14.5775 1.38014 14.5775 1.36606C14.5775 1.34916 14.5296 1.33789 14.4704 1.33789C14.4113 1.33789 14.3521 1.32662 14.3352 1.31254C14.3211 1.29845 14.2591 1.28155 14.1972 1.2731C14.0929 1.2562 14.0225 1.24493 13.662 1.17169C13.5859 1.15479 13.431 1.12944 13.3239 1.11535C13.2141 1.09845 13.107 1.08155 13.0845 1.0731C13.0282 1.05338 12.1098 0.943523 11.7324 0.90972C11.338 0.875917 8.7352 0.856199 8.59154 0.887185ZM10.9352 1.76042C11.6253 1.79141 12.0929 1.83648 12.8028 1.93226C12.9183 1.94634 13.0873 1.96606 13.1775 1.97451C13.2648 1.98296 13.338 2.00268 13.338 2.01676C13.338 2.03085 13.4084 2.04211 13.4929 2.04211C13.5775 2.04211 13.6479 2.05338 13.6479 2.07028C13.6479 2.08437 13.7127 2.09845 13.7887 2.09845C13.8676 2.09845 13.9296 2.10972 13.9296 2.12662C13.9296 2.14071 13.9944 2.15479 14.0704 2.15479C14.1493 2.15479 14.2113 2.16606 14.2113 2.18296C14.2113 2.19704 14.2676 2.21113 14.338 2.21113C14.4084 2.21113 14.4648 2.2224 14.4648 2.23648C14.4648 2.25057 14.507 2.26747 14.5577 2.27592C14.7014 2.30127 14.8113 2.32662 14.8732 2.34916C14.9042 2.36324 15.1211 2.43366 15.3521 2.50972C15.5859 2.58296 15.7803 2.6562 15.7831 2.66747C15.7887 2.67873 15.8253 2.69 15.862 2.69C15.8986 2.69 15.9296 2.70127 15.9296 2.71817C15.9296 2.73226 15.969 2.74634 16.0141 2.74634C16.062 2.74634 16.0986 2.75761 16.0986 2.77451C16.0986 2.78859 16.1239 2.80268 16.1549 2.80268C16.1859 2.80268 16.2113 2.81395 16.2113 2.83085C16.2113 2.84493 16.2366 2.85902 16.2676 2.85902C16.2986 2.85902 16.3239 2.87028 16.3239 2.88719C16.3239 2.90127 16.3549 2.91535 16.3944 2.91535C16.4338 2.91535 16.4648 2.92662 16.4648 2.94352C16.4648 2.95761 16.4901 2.97169 16.5211 2.97169C16.5521 2.97169 16.5775 2.98296 16.5775 2.99986C16.5775 3.01395 16.6028 3.02803 16.6338 3.02803C16.6648 3.02803 16.6901 3.0393 16.6901 3.0562C16.6901 3.07028 16.7155 3.08437 16.7465 3.08437C16.7775 3.08437 16.8028 3.09564 16.8028 3.11254C16.8028 3.12662 16.8225 3.14071 16.8451 3.14071C16.8873 3.14071 16.9155 3.15761 17.0141 3.24493C17.0338 3.26465 17.0676 3.28155 17.0845 3.28155C17.1014 3.28155 17.1408 3.3069 17.1746 3.33789C17.2084 3.36888 17.2535 3.39423 17.2732 3.39423C17.2929 3.39423 17.3098 3.4055 17.3098 3.4224C17.3098 3.43648 17.3267 3.45057 17.3465 3.45057C17.3662 3.45057 17.4 3.47592 17.4225 3.5069C17.4451 3.53789 17.4789 3.56324 17.4986 3.56324C17.5211 3.56324 17.5944 3.61676 17.662 3.68155C17.7324 3.74916 17.8282 3.84211 17.8789 3.89C18.0563 4.05902 18.2113 4.24211 18.2113 4.28155C18.2113 4.30409 18.2225 4.32381 18.2338 4.32381C18.2479 4.32381 18.2732 4.36888 18.2958 4.4224C18.3183 4.47592 18.3436 4.52099 18.3577 4.52099C18.369 4.52099 18.3803 4.55197 18.3803 4.59141C18.3803 4.63085 18.3944 4.66183 18.4084 4.66183C18.4253 4.66183 18.4366 4.74071 18.4366 4.84493C18.4366 4.94916 18.4253 5.02803 18.4084 5.02803C18.3944 5.02803 18.3803 5.06465 18.3803 5.11254C18.3803 5.15761 18.369 5.19704 18.3521 5.19704C18.338 5.19704 18.3239 5.2224 18.3239 5.25338C18.3239 5.28437 18.3155 5.30972 18.3014 5.30972C18.2901 5.30972 18.2648 5.34352 18.2451 5.38578C18.1465 5.60831 17.5606 6.16606 17.2394 6.34634C17.1944 6.37169 17.1521 6.40268 17.1465 6.41395C17.1408 6.42803 17.1183 6.43648 17.0958 6.43648C17.0732 6.43648 17.0563 6.44775 17.0563 6.46465C17.0563 6.47873 17.0366 6.49282 17.0141 6.49282C16.9915 6.49282 16.9718 6.50409 16.9718 6.52099C16.9718 6.53507 16.9465 6.54916 16.9155 6.54916C16.8845 6.54916 16.8591 6.56043 16.8591 6.57733C16.8591 6.59141 16.8338 6.6055 16.8028 6.6055C16.7718 6.6055 16.7465 6.61676 16.7465 6.63366C16.7465 6.64775 16.7211 6.66183 16.6929 6.66183C16.662 6.66183 16.6338 6.67028 16.6282 6.68437C16.6169 6.71254 16.1887 6.91535 16.138 6.91535C16.1183 6.91535 16.0986 6.92662 16.0986 6.94352C16.0986 6.95761 16.0732 6.97169 16.0451 6.97169C16.0141 6.97169 15.9803 6.98296 15.9718 6.99986C15.9634 7.01395 15.9239 7.02803 15.8873 7.02803C15.8507 7.02803 15.8113 7.0393 15.8028 7.0562C15.7944 7.07028 15.7606 7.08437 15.7296 7.08437C15.7014 7.08437 15.676 7.09564 15.676 7.11254C15.676 7.12662 15.6394 7.14071 15.5915 7.14071C15.5465 7.14071 15.507 7.15197 15.507 7.16888C15.507 7.18296 15.4704 7.19704 15.4225 7.19704C15.3775 7.19704 15.338 7.20831 15.338 7.22521C15.338 7.2393 15.2929 7.25338 15.2394 7.25338C15.1859 7.25338 15.1408 7.26465 15.1408 7.28155C15.1408 7.29564 15.1042 7.30972 15.0563 7.30972C15.0113 7.30972 14.9718 7.32099 14.9718 7.33789C14.9718 7.35197 14.9211 7.36606 14.8591 7.36606C14.7972 7.36606 14.7465 7.37733 14.7465 7.39141C14.7465 7.4055 14.7042 7.4224 14.6563 7.43085C14.6056 7.4393 14.507 7.46183 14.4366 7.47874C14.3662 7.49564 14.2591 7.52099 14.1972 7.53507C14.1352 7.54916 13.9972 7.58014 13.8873 7.6055C13.7014 7.64775 13.6225 7.66465 13.2113 7.73789C12.8084 7.80831 12.2253 7.8731 11.8535 7.89C11.6789 7.89845 11.5352 7.91535 11.5352 7.93226C11.5352 7.94634 10.938 7.95761 9.99999 7.95761C9.06196 7.95761 8.46478 7.94634 8.46478 7.93226C8.46478 7.91535 8.32111 7.89845 8.14928 7.89C7.56618 7.86465 6.71548 7.74352 6.11266 7.6055C6.00562 7.58014 5.86478 7.54634 5.8028 7.53507C5.74083 7.52099 5.63379 7.49564 5.56337 7.47874C5.49294 7.46183 5.39435 7.4393 5.34647 7.43085C5.29576 7.4224 5.25351 7.4055 5.25351 7.39141C5.25351 7.37733 5.2028 7.36606 5.14083 7.36606C5.07886 7.36606 5.02816 7.35197 5.02816 7.33789C5.02816 7.32099 4.99154 7.30972 4.94365 7.30972C4.89858 7.30972 4.85914 7.29564 4.85914 7.28155C4.85914 7.26465 4.81407 7.25338 4.76055 7.25338C4.70703 7.25338 4.66196 7.2393 4.66196 7.22521C4.66196 7.20831 4.62534 7.19704 4.57745 7.19704C4.53238 7.19704 4.49294 7.18296 4.49294 7.16888C4.49294 7.15197 4.46196 7.14071 4.42534 7.14071C4.3859 7.14071 4.34928 7.12944 4.34083 7.11817C4.33238 7.1069 4.26196 7.07873 4.18309 7.0562C4.10421 7.03366 4.03379 7.0055 4.02534 6.99423C4.01689 6.98296 3.9859 6.97169 3.95492 6.97169C3.92675 6.97169 3.90139 6.95761 3.90139 6.94352C3.90139 6.92662 3.87886 6.91535 3.85351 6.91535C3.82534 6.91535 3.72111 6.87028 3.6197 6.81676C3.52111 6.76324 3.42252 6.71817 3.4028 6.71817C3.38308 6.71817 3.36618 6.70409 3.36618 6.69C3.36618 6.6731 3.34083 6.66183 3.30985 6.66183C3.27886 6.66183 3.25351 6.64775 3.25351 6.63366C3.25351 6.61676 3.22816 6.6055 3.19717 6.6055C3.16618 6.6055 3.14083 6.59141 3.14083 6.57733C3.14083 6.56043 3.11548 6.54916 3.08449 6.54916C3.05351 6.54916 3.02816 6.53507 3.02816 6.52099C3.02816 6.50409 3.00844 6.49282 2.9859 6.49282C2.96337 6.49282 2.94365 6.47873 2.94365 6.46465C2.94365 6.44775 2.92393 6.43648 2.90139 6.43648C2.87886 6.43648 2.85914 6.42803 2.85914 6.41395C2.85914 6.40268 2.82534 6.37733 2.78308 6.36043C2.73801 6.34071 2.67041 6.29564 2.62534 6.26183C2.58308 6.22521 2.49858 6.15761 2.43379 6.11254C2.30985 6.01958 1.9521 5.6731 1.85069 5.54352C1.81689 5.50127 1.77182 5.43085 1.75492 5.38578C1.7352 5.34352 1.70985 5.30972 1.69858 5.30972C1.68449 5.30972 1.67604 5.28437 1.67604 5.25338C1.67604 5.2224 1.66478 5.19704 1.64787 5.19704C1.63379 5.19704 1.6197 5.15761 1.6197 5.11254C1.6197 5.06465 1.60844 5.02803 1.59154 5.02803C1.57463 5.02803 1.56337 4.94916 1.56337 4.84493C1.56337 4.74071 1.57463 4.66183 1.59154 4.66183C1.60844 4.66183 1.6197 4.63085 1.6197 4.59141C1.6197 4.55197 1.63097 4.52099 1.64224 4.52099C1.65632 4.52099 1.68168 4.47592 1.70421 4.4224C1.72675 4.36888 1.7521 4.32381 1.76618 4.32381C1.77745 4.32381 1.78872 4.30409 1.78872 4.28155C1.78872 4.23648 1.95492 4.04493 2.1521 3.86183C2.2197 3.79704 2.3183 3.70409 2.369 3.65338C2.4197 3.6055 2.47886 3.56324 2.49858 3.56324C2.52111 3.56324 2.55492 3.53789 2.57745 3.5069C2.59999 3.47592 2.63379 3.45057 2.65351 3.45057C2.67323 3.45057 2.69013 3.43648 2.69013 3.4224C2.69013 3.4055 2.70703 3.39423 2.72675 3.39423C2.74647 3.39423 2.79154 3.36888 2.82534 3.33789C2.85914 3.3069 2.89858 3.28155 2.91548 3.28155C2.94365 3.28155 2.97463 3.25902 3.07041 3.17451C3.09013 3.15761 3.12956 3.14071 3.1521 3.14071C3.17745 3.14071 3.19717 3.12662 3.19717 3.11254C3.19717 3.09564 3.22252 3.08437 3.25351 3.08437C3.28449 3.08437 3.30985 3.07028 3.30985 3.0562C3.30985 3.0393 3.3352 3.02803 3.36618 3.02803C3.39717 3.02803 3.42252 3.01395 3.42252 2.99986C3.42252 2.98296 3.44787 2.97169 3.47886 2.97169C3.50985 2.97169 3.5352 2.95761 3.5352 2.94352C3.5352 2.92662 3.56618 2.91535 3.60562 2.91535C3.64506 2.91535 3.67604 2.90127 3.67604 2.88719C3.67604 2.87028 3.70139 2.85902 3.73238 2.85902C3.76337 2.85902 3.78872 2.84493 3.78872 2.83085C3.78872 2.81395 3.81407 2.80268 3.84506 2.80268C3.87604 2.80268 3.90139 2.78859 3.90139 2.77451C3.90139 2.75761 3.94083 2.74634 3.9859 2.74634C4.03379 2.74634 4.07041 2.73226 4.07041 2.71817C4.07041 2.70127 4.09294 2.69 4.12111 2.69C4.14928 2.69 4.18309 2.67873 4.19999 2.66747C4.21407 2.65338 4.41689 2.58296 4.64787 2.5069C4.88168 2.43366 5.09576 2.36324 5.12675 2.35197C5.1859 2.32662 5.29576 2.30127 5.44506 2.27592C5.49576 2.26747 5.54365 2.25057 5.5521 2.23648C5.56055 2.2224 5.61689 2.21113 5.67886 2.21113C5.73801 2.21113 5.78872 2.19704 5.78872 2.18296C5.78872 2.16606 5.85351 2.15479 5.92956 2.15479C6.00844 2.15479 6.07041 2.14071 6.07041 2.12662C6.07041 2.10972 6.1352 2.09845 6.21125 2.09845C6.29013 2.09845 6.3521 2.08437 6.3521 2.07028C6.3521 2.05338 6.42252 2.04211 6.50703 2.04211C6.59154 2.04211 6.66196 2.03085 6.66196 2.01676C6.66196 2.00268 6.7352 1.98578 6.82534 1.97451C6.91266 1.96606 7.08168 1.94634 7.19717 1.92944C8.59717 1.74916 9.62534 1.70127 10.9352 1.76042ZM1.61407 6.57169C1.65632 6.61395 1.7352 6.68155 1.78872 6.71817C1.84224 6.75479 1.89294 6.79423 1.90139 6.80268C1.90985 6.81113 1.96618 6.85338 2.02816 6.90127C2.09013 6.94634 2.15773 6.99986 2.17745 7.01676C2.19435 7.03648 2.23661 7.06183 2.26759 7.07028C2.29858 7.07873 2.32393 7.10127 2.32393 7.11535C2.32393 7.12944 2.34647 7.14071 2.37463 7.14071C2.4028 7.14071 2.44224 7.16606 2.46478 7.19704C2.48731 7.22803 2.52675 7.25338 2.55492 7.25338C2.58308 7.25338 2.60562 7.26465 2.60562 7.28155C2.60562 7.29564 2.63097 7.30972 2.66196 7.30972C2.69294 7.30972 2.7183 7.32099 2.7183 7.33789C2.7183 7.35197 2.74365 7.36606 2.77463 7.36606C2.80562 7.36606 2.83097 7.37733 2.83097 7.38859C2.83097 7.40268 2.87604 7.42803 2.92956 7.45057C2.98308 7.4731 3.02816 7.49845 3.02816 7.51254C3.02816 7.52381 3.04787 7.53507 3.07041 7.53507C3.10421 7.53507 3.38308 7.66183 3.569 7.76324C3.59717 7.77733 3.64506 7.78859 3.67604 7.78859C3.70703 7.78859 3.73238 7.79986 3.73238 7.81676C3.73238 7.83085 3.75773 7.84493 3.7859 7.84493C3.81689 7.84493 3.85069 7.8562 3.85914 7.8731C3.86759 7.88719 3.90703 7.90127 3.94647 7.90127C3.98308 7.90127 4.01407 7.91254 4.01407 7.92944C4.01407 7.94352 4.05351 7.95761 4.09858 7.95761C4.14647 7.95761 4.18309 7.96888 4.18309 7.98578C4.18309 7.99986 4.22252 8.01395 4.26759 8.01395C4.31548 8.01395 4.3521 8.02521 4.3521 8.04212C4.3521 8.0562 4.39717 8.07028 4.45069 8.07028C4.50421 8.07028 4.54928 8.08155 4.54928 8.09845C4.54928 8.11254 4.58027 8.12662 4.61689 8.12662C4.65632 8.12662 4.69576 8.13789 4.70421 8.15479C4.71266 8.16888 4.7521 8.18296 4.79154 8.18296C4.82816 8.18296 4.88168 8.19423 4.90985 8.21113C4.97745 8.24775 5.69858 8.43085 6.02816 8.49564C6.50703 8.58859 6.79999 8.63648 7.00844 8.65057C7.11266 8.65902 7.19717 8.67874 7.19717 8.69282C7.19717 8.7069 7.29858 8.71817 7.42252 8.71817C7.54647 8.71817 7.64787 8.72944 7.64787 8.74352C7.64787 8.76043 7.78309 8.77733 7.9521 8.78578C8.1183 8.79423 8.5014 8.81676 8.8028 8.83366C9.10421 8.85057 9.64506 8.86465 9.99999 8.86465C10.3577 8.86465 10.8958 8.85057 11.1972 8.83366C11.4986 8.81676 11.8817 8.79423 12.0507 8.78578C12.2169 8.77733 12.3521 8.76043 12.3521 8.74352C12.3521 8.72944 12.4535 8.71817 12.5775 8.71817C12.7014 8.71817 12.8028 8.7069 12.8028 8.69282C12.8028 8.67874 12.8873 8.65902 12.9944 8.65057C13.2 8.63648 13.4958 8.58859 13.9718 8.49564C14.1746 8.4562 14.2451 8.4393 14.5915 8.34634C14.7634 8.29845 14.9436 8.2562 14.9944 8.24775C15.0451 8.2393 15.0929 8.2224 15.1014 8.20831C15.1098 8.19423 15.1465 8.18296 15.1859 8.18296C15.2225 8.18296 15.276 8.17169 15.3042 8.15761C15.3775 8.12099 15.5465 8.07028 15.6 8.07028C15.6253 8.07028 15.6479 8.0562 15.6479 8.04212C15.6479 8.02521 15.6873 8.01395 15.7324 8.01395C15.7803 8.01395 15.8169 7.99986 15.8169 7.98578C15.8169 7.96888 15.8563 7.95761 15.9014 7.95761C15.9493 7.95761 15.9859 7.94352 15.9859 7.92944C15.9859 7.91254 16.0169 7.90127 16.0535 7.90127C16.0929 7.90127 16.1324 7.88719 16.1408 7.8731C16.1493 7.8562 16.1831 7.84493 16.2141 7.84493C16.2422 7.84493 16.2676 7.83085 16.2676 7.81676C16.2676 7.79986 16.2929 7.78859 16.3239 7.78859C16.3549 7.78859 16.4028 7.77733 16.431 7.76043C16.5746 7.68155 16.9042 7.53507 16.9352 7.53507C16.9549 7.53507 16.9718 7.52662 16.9718 7.51254C16.9718 7.50127 17.0422 7.46183 17.1267 7.4224C17.2113 7.38296 17.2817 7.34352 17.2817 7.32944C17.2817 7.31817 17.307 7.30972 17.338 7.30972C17.369 7.30972 17.3944 7.29564 17.3944 7.28155C17.3944 7.26465 17.4141 7.25338 17.4366 7.25338C17.4591 7.25338 17.4789 7.2393 17.4789 7.22521C17.4789 7.20831 17.4986 7.19704 17.5211 7.19704C17.5436 7.19704 17.5634 7.18296 17.5634 7.16888C17.5634 7.15197 17.5887 7.14071 17.6197 7.14071C17.6507 7.14071 17.676 7.12944 17.676 7.11535C17.676 7.10127 17.7014 7.07873 17.7324 7.07028C17.7634 7.06183 17.8056 7.03648 17.8225 7.01676C17.8422 6.99986 17.9098 6.94634 17.9718 6.90127C18.0338 6.85338 18.0901 6.81113 18.0986 6.80268C18.107 6.79423 18.1577 6.75479 18.2113 6.71817C18.2648 6.68155 18.3436 6.61395 18.3859 6.57169C18.4253 6.52944 18.4676 6.49282 18.476 6.49282C18.4845 6.49282 18.4929 7.17733 18.4929 8.01395C18.4929 9.00831 18.4845 9.53507 18.4648 9.53507C18.4507 9.53507 18.4366 9.59705 18.4366 9.67592C18.4366 9.75197 18.4253 9.81676 18.4084 9.81676C18.3944 9.81676 18.3803 9.84775 18.3803 9.88719C18.3803 9.92662 18.369 9.95761 18.3521 9.95761C18.338 9.95761 18.3239 9.98296 18.3239 10.0139C18.3239 10.0449 18.3127 10.0703 18.2958 10.0703C18.2817 10.0703 18.2676 10.09 18.2676 10.1125C18.2676 10.1379 18.2366 10.1886 18.1972 10.228C18.1577 10.2675 18.1267 10.3069 18.1267 10.3182C18.1267 10.352 17.6563 10.8308 17.6225 10.8308C17.6056 10.8308 17.5915 10.8421 17.5915 10.859C17.5915 10.8731 17.5746 10.8872 17.5549 10.8872C17.5352 10.8872 17.5014 10.9125 17.4789 10.9435C17.4563 10.9745 17.4282 10.9999 17.4141 10.9999C17.4 10.9999 17.3352 11.0365 17.2676 11.0844C17.2 11.1294 17.1324 11.1689 17.1155 11.1689C17.0986 11.1689 17.0845 11.1801 17.0845 11.1942C17.0845 11.2083 17.0451 11.2337 16.9972 11.2534C16.9493 11.2731 16.8958 11.3041 16.8789 11.321C16.8282 11.3661 16.4901 11.5351 16.4479 11.5351C16.4253 11.5351 16.4084 11.5463 16.4084 11.5632C16.4084 11.5773 16.3775 11.5914 16.338 11.5914C16.2986 11.5914 16.2676 11.6027 16.2676 11.6196C16.2676 11.6337 16.2422 11.6477 16.2113 11.6477C16.1803 11.6477 16.1549 11.659 16.1549 11.6759C16.1549 11.69 16.1239 11.7041 16.0845 11.7041C16.0451 11.7041 16.0141 11.7154 16.0141 11.7323C16.0141 11.7463 15.9831 11.7604 15.9436 11.7604C15.9042 11.7604 15.8732 11.7717 15.8732 11.7886C15.8732 11.8027 15.8451 11.8168 15.8084 11.8168C15.7718 11.8168 15.7324 11.828 15.7183 11.8421C15.6901 11.8675 15.2282 12.0252 14.9718 12.0956C14.9014 12.1154 14.8169 12.1435 14.7803 12.1576C14.7436 12.1717 14.6845 12.183 14.6479 12.183C14.6084 12.183 14.5775 12.1942 14.5775 12.2111C14.5775 12.2252 14.5211 12.2393 14.4507 12.2393C14.3803 12.2393 14.3239 12.2506 14.3239 12.2675C14.3239 12.2816 14.2732 12.2956 14.2113 12.2956C14.1493 12.2956 14.0986 12.3069 14.0986 12.3238C14.0986 12.3379 14.0366 12.352 13.9577 12.352C13.8817 12.352 13.8169 12.3632 13.8169 12.3801C13.8169 12.3942 13.7465 12.4083 13.662 12.4083C13.5775 12.4083 13.507 12.4196 13.507 12.4365C13.507 12.4506 13.4394 12.4647 13.3577 12.4647C13.276 12.4647 13.1972 12.4759 13.1831 12.49C13.1662 12.5041 13.0845 12.5238 13 12.5323C12.9155 12.5407 12.7436 12.5604 12.6197 12.5745C11.5267 12.7041 11.1521 12.7266 9.99999 12.7266C8.84787 12.7266 8.47323 12.7041 7.38027 12.5745C7.25632 12.5604 7.08449 12.5407 6.99999 12.5323C6.91548 12.5238 6.83379 12.5041 6.8197 12.49C6.8028 12.4759 6.72393 12.4647 6.64224 12.4647C6.56055 12.4647 6.49294 12.4506 6.49294 12.4365C6.49294 12.4196 6.42252 12.4083 6.33801 12.4083C6.25351 12.4083 6.18309 12.3942 6.18309 12.3801C6.18309 12.3632 6.12111 12.352 6.04224 12.352C5.96618 12.352 5.90139 12.3379 5.90139 12.3238C5.90139 12.3069 5.85069 12.2956 5.79154 12.2956C5.72956 12.2956 5.67041 12.2816 5.66196 12.2675C5.65351 12.2506 5.59435 12.2393 5.53238 12.2393C5.47323 12.2393 5.42252 12.2252 5.42252 12.2111C5.42252 12.1942 5.39154 12.183 5.3521 12.183C5.31548 12.183 5.25632 12.1717 5.2197 12.1576C5.18309 12.1435 5.09858 12.1154 5.02816 12.0956C4.77182 12.0252 4.30985 11.8675 4.28168 11.8421C4.26759 11.828 4.22816 11.8168 4.19154 11.8168C4.15492 11.8168 4.12675 11.8027 4.12675 11.7886C4.12675 11.7717 4.10139 11.7604 4.07323 11.7604C4.04224 11.7604 4.00844 11.7463 3.99999 11.7323C3.99154 11.7154 3.9521 11.7041 3.91266 11.7041C3.87604 11.7041 3.84506 11.69 3.84506 11.6759C3.84506 11.659 3.8197 11.6477 3.78872 11.6477C3.75773 11.6477 3.73238 11.6337 3.73238 11.6196C3.73238 11.6027 3.70985 11.5914 3.68168 11.5914C3.6197 11.5914 3.47886 11.5294 3.47886 11.4985C3.47886 11.4872 3.46196 11.4787 3.44224 11.4787C3.39154 11.4787 3.25351 11.4111 3.25351 11.3858C3.25351 11.3745 3.22816 11.3661 3.19717 11.3661C3.16618 11.3661 3.14083 11.3548 3.14083 11.3407C3.14083 11.3266 3.11548 11.3069 3.08449 11.2956C3.01407 11.2731 2.59435 10.9999 2.58308 10.9689C2.57745 10.9548 2.55773 10.9435 2.53801 10.9435C2.52111 10.9435 2.48731 10.9182 2.46478 10.8872C2.44224 10.8562 2.40562 10.8308 2.3859 10.8308C2.34647 10.8308 1.87323 10.3576 1.87323 10.3182C1.87323 10.3069 1.84224 10.2675 1.8028 10.228C1.76337 10.1886 1.73238 10.1379 1.73238 10.1125C1.73238 10.09 1.72111 10.0703 1.70421 10.0703C1.69013 10.0703 1.67604 10.0449 1.67604 10.0139C1.67604 9.98296 1.66478 9.95761 1.64787 9.95761C1.63379 9.95761 1.6197 9.92662 1.6197 9.88719C1.6197 9.84775 1.60844 9.81676 1.59154 9.81676C1.57745 9.81676 1.56337 9.75197 1.56337 9.67592C1.56337 9.59705 1.5521 9.53507 1.5352 9.53507C1.51548 9.53507 1.50703 9.00831 1.50703 8.01395C1.50703 7.17733 1.51548 6.49282 1.52393 6.49282C1.53238 6.49282 1.57463 6.52944 1.61407 6.57169ZM1.64224 11.3576C1.77745 11.4844 1.84506 11.5351 1.86759 11.5351C1.87886 11.5351 1.90703 11.5604 1.92956 11.5914C1.9521 11.6224 1.9859 11.6477 2.00562 11.6477C2.02534 11.6477 2.04224 11.659 2.04224 11.6759C2.04224 11.69 2.05914 11.7041 2.07886 11.7041C2.09576 11.7041 2.14928 11.7351 2.19435 11.7745C2.23942 11.8139 2.28731 11.8449 2.29858 11.8449C2.30985 11.8449 2.33801 11.8618 2.35773 11.8816C2.37745 11.9013 2.48449 11.9661 2.59154 12.028C2.70139 12.0872 2.79435 12.1463 2.79717 12.1604C2.8028 12.1717 2.83097 12.183 2.86196 12.183C2.89013 12.183 2.91548 12.1942 2.91548 12.2111C2.91548 12.2252 2.94083 12.2393 2.97182 12.2393C3.0028 12.2393 3.02816 12.2506 3.02816 12.2675C3.02816 12.2816 3.05351 12.2956 3.08449 12.2956C3.11548 12.2956 3.14083 12.3069 3.14083 12.3238C3.14083 12.3379 3.16618 12.352 3.19717 12.352C3.22816 12.352 3.25351 12.3632 3.25351 12.3801C3.25351 12.3942 3.28449 12.4083 3.32393 12.4083C3.36337 12.4083 3.39435 12.4196 3.39435 12.4365C3.39435 12.4506 3.42534 12.4647 3.46478 12.4647C3.50421 12.4647 3.5352 12.4759 3.5352 12.4928C3.5352 12.5069 3.56618 12.521 3.60562 12.521C3.64506 12.521 3.67604 12.5323 3.67604 12.5435C3.67604 12.5548 3.7352 12.583 3.81125 12.6027C3.88449 12.6252 3.95773 12.6506 3.97182 12.6618C4.02252 12.6985 4.76618 12.9435 4.82816 12.9435C4.85914 12.9435 4.88731 12.9548 4.88731 12.9717C4.88731 12.9858 4.93238 12.9999 4.9859 12.9999C5.03942 12.9999 5.08449 13.0111 5.08449 13.028C5.08449 13.0421 5.1352 13.0562 5.19717 13.0562C5.25914 13.0562 5.30985 13.0675 5.30985 13.0844C5.30985 13.0985 5.36055 13.1125 5.42252 13.1125C5.48449 13.1125 5.5352 13.1238 5.5352 13.1407C5.5352 13.1548 5.59154 13.1689 5.66196 13.1689C5.73238 13.1689 5.78872 13.1801 5.78872 13.197C5.78872 13.2111 5.85351 13.2252 5.92956 13.2252C6.00844 13.2252 6.07041 13.2365 6.07041 13.2506C6.07041 13.2647 6.12956 13.2816 6.20562 13.29C6.27886 13.2985 6.41407 13.321 6.50703 13.3379C6.59999 13.3548 6.75773 13.3801 6.85914 13.3942C6.96055 13.4083 7.169 13.4393 7.32393 13.4647C8.72956 13.6844 11.2704 13.6844 12.676 13.4647C12.831 13.4393 13.0394 13.4083 13.1408 13.3942C13.2422 13.3801 13.4 13.3548 13.4929 13.3379C13.5859 13.321 13.7324 13.2956 13.8169 13.2787C13.9014 13.2647 14.0253 13.2449 14.0929 13.2365C14.1577 13.2252 14.2113 13.2083 14.2113 13.1942C14.2113 13.1801 14.2676 13.1689 14.338 13.1689C14.4084 13.1689 14.4648 13.1548 14.4648 13.1407C14.4648 13.1238 14.5155 13.1125 14.5775 13.1125C14.6394 13.1125 14.6901 13.0985 14.6901 13.0844C14.6901 13.0675 14.7408 13.0562 14.8028 13.0562C14.8648 13.0562 14.9155 13.0421 14.9155 13.028C14.9155 13.0111 14.9549 12.9999 15 12.9999C15.0479 12.9999 15.107 12.9886 15.1352 12.9745C15.2141 12.9351 15.3803 12.8872 15.4422 12.8872C15.476 12.8872 15.507 12.8787 15.5127 12.8647C15.5183 12.8534 15.6282 12.8083 15.7606 12.7632C15.8929 12.7182 16.0141 12.6731 16.0282 12.6618C16.0451 12.6506 16.1155 12.6252 16.1915 12.6027C16.2648 12.583 16.3239 12.5548 16.3239 12.5435C16.3239 12.5323 16.3493 12.521 16.3775 12.521C16.4084 12.521 16.4422 12.5069 16.4507 12.4928C16.4591 12.4759 16.4986 12.4647 16.538 12.4647C16.5746 12.4647 16.6056 12.4506 16.6056 12.4365C16.6056 12.4196 16.6366 12.4083 16.676 12.4083C16.7155 12.4083 16.7465 12.3942 16.7465 12.3801C16.7465 12.3632 16.7718 12.352 16.8028 12.352C16.8338 12.352 16.8591 12.3379 16.8591 12.3238C16.8591 12.3069 16.8845 12.2956 16.9155 12.2956C16.9465 12.2956 16.9718 12.2816 16.9718 12.2675C16.9718 12.2506 16.9972 12.2393 17.0282 12.2393C17.0591 12.2393 17.0845 12.2252 17.0845 12.2111C17.0845 12.1942 17.1098 12.183 17.138 12.183C17.169 12.183 17.1972 12.1717 17.2028 12.1604C17.2084 12.1463 17.3014 12.0872 17.4084 12.028C17.5183 11.9661 17.6225 11.9013 17.6422 11.8844C17.6591 11.8647 17.7014 11.8393 17.7324 11.8308C17.7634 11.8224 17.7887 11.7999 17.7887 11.7858C17.7887 11.7717 17.8084 11.7604 17.831 11.7604C17.8535 11.7604 17.8732 11.7463 17.8732 11.7323C17.8732 11.7154 17.8929 11.7041 17.9155 11.7041C17.938 11.7041 17.9577 11.69 17.9577 11.6759C17.9577 11.659 17.9746 11.6477 17.9944 11.6477C18.0141 11.6477 18.0479 11.6224 18.0704 11.5914C18.0929 11.5604 18.1211 11.5351 18.1324 11.5351C18.1549 11.5351 18.2225 11.4844 18.3577 11.3576C18.4056 11.3154 18.4535 11.2816 18.4676 11.2816C18.4817 11.2816 18.4929 11.9266 18.4929 12.8027C18.4929 13.797 18.4845 14.3238 18.4648 14.3238C18.4507 14.3238 18.4366 14.3801 18.4366 14.4506C18.4366 14.521 18.4253 14.5773 18.4084 14.5773C18.3944 14.5773 18.3803 14.6083 18.3803 14.6478C18.3803 14.6872 18.369 14.7182 18.3521 14.7182C18.338 14.7182 18.3239 14.7435 18.3239 14.7745C18.3239 14.8055 18.3127 14.8308 18.2958 14.8308C18.2817 14.8308 18.2676 14.8449 18.2676 14.8647C18.2676 14.9266 17.8845 15.3942 17.8338 15.3942C17.8253 15.3942 17.7718 15.4421 17.7127 15.5013C17.6535 15.5604 17.5549 15.6449 17.4929 15.69C17.431 15.7379 17.3746 15.7801 17.3662 15.7886C17.3577 15.797 17.3183 15.8196 17.276 15.8421C17.231 15.8647 17.1972 15.8928 17.1972 15.9069C17.1972 15.9182 17.1718 15.9294 17.1408 15.9294C17.1098 15.9294 17.0845 15.9407 17.0845 15.9576C17.0845 15.9717 17.062 15.9858 17.0338 15.9858C17.0056 15.9858 16.9662 16.0111 16.9436 16.0421C16.9211 16.0731 16.8817 16.0985 16.8535 16.0985C16.8253 16.0985 16.8028 16.1097 16.8028 16.1266C16.8028 16.1407 16.7775 16.1548 16.7465 16.1548C16.7155 16.1548 16.6901 16.1661 16.6901 16.183C16.6901 16.197 16.6648 16.2111 16.6338 16.2111C16.6028 16.2111 16.5775 16.2224 16.5775 16.2393C16.5775 16.2534 16.5634 16.2675 16.5465 16.2675C16.5267 16.2675 16.4253 16.3125 16.3211 16.3661C16.2141 16.4196 16.1127 16.4647 16.0986 16.4647C16.0817 16.4647 16.0141 16.49 15.9521 16.521C15.8873 16.552 15.8113 16.5773 15.7831 16.5773C15.7549 16.5773 15.7324 16.5886 15.7324 16.6055C15.7324 16.6196 15.6958 16.6337 15.6479 16.6337C15.6028 16.6337 15.5634 16.6449 15.5634 16.6618C15.5634 16.6759 15.5267 16.69 15.4789 16.69C15.4338 16.69 15.3944 16.7013 15.3944 16.7182C15.3944 16.7323 15.3577 16.7463 15.3098 16.7463C15.2648 16.7463 15.2253 16.7576 15.2253 16.7745C15.2253 16.7886 15.1887 16.8027 15.1408 16.8027C15.0958 16.8027 15.0563 16.8139 15.0563 16.8308C15.0563 16.8449 15.0113 16.859 14.9577 16.859C14.9042 16.859 14.8591 16.8703 14.8591 16.8844C14.8591 16.8985 14.8169 16.9154 14.769 16.9238C14.7183 16.9351 14.631 16.9492 14.5775 16.9576C14.5239 16.9689 14.4535 16.9858 14.4225 16.9999C14.3915 17.0139 14.3296 17.0308 14.2817 17.0393C14.2366 17.0478 14.0507 17.0872 13.8732 17.1266C13.3014 17.2534 13.0253 17.2956 12.6141 17.3266C12.5014 17.3351 12.4084 17.3548 12.4084 17.3689C12.4084 17.383 12.2873 17.3942 12.1408 17.3942C11.9803 17.3942 11.8732 17.4055 11.8732 17.4224C11.8732 17.4393 11.7098 17.4506 11.4366 17.4506C11.1634 17.4506 11 17.4618 11 17.4787C11 17.4956 10.6479 17.5069 9.99999 17.5069C9.3521 17.5069 8.99999 17.4956 8.99999 17.4787C8.99999 17.4618 8.83661 17.4506 8.56337 17.4506C8.29013 17.4506 8.12675 17.4393 8.12675 17.4224C8.12675 17.4055 8.0197 17.3942 7.85914 17.3942C7.71266 17.3942 7.59154 17.383 7.59154 17.3689C7.59154 17.3548 7.49858 17.3351 7.38872 17.3266C7.27604 17.321 7.1014 17.3013 6.99999 17.2844C6.89858 17.2675 6.7352 17.2421 6.63379 17.228C6.53238 17.2111 6.30421 17.1661 6.12675 17.1266C5.94928 17.0844 5.75492 17.0449 5.69576 17.0365C5.63942 17.028 5.58309 17.0111 5.57463 16.997C5.56618 16.983 5.5183 16.9717 5.46478 16.9717C5.41125 16.9717 5.36055 16.9576 5.3521 16.9435C5.34365 16.9266 5.29013 16.9154 5.23661 16.9154C5.18309 16.9154 5.14083 16.9013 5.14083 16.8872C5.14083 16.8703 5.10421 16.859 5.05632 16.859C5.01125 16.859 4.97182 16.8449 4.97182 16.8308C4.97182 16.8139 4.92675 16.8027 4.87323 16.8027C4.8197 16.8027 4.77463 16.7886 4.77463 16.7745C4.77463 16.7576 4.73801 16.7463 4.69013 16.7463C4.64506 16.7463 4.60562 16.7323 4.60562 16.7182C4.60562 16.7013 4.569 16.69 4.52111 16.69C4.47604 16.69 4.43661 16.6759 4.43661 16.6618C4.43661 16.6449 4.39999 16.6337 4.3521 16.6337C4.30703 16.6337 4.26759 16.6196 4.26759 16.6055C4.26759 16.5886 4.24506 16.5773 4.21689 16.5773C4.18872 16.5773 4.11266 16.552 4.04787 16.521C3.9859 16.49 3.9183 16.4647 3.90139 16.4647C3.88449 16.4647 3.76055 16.4083 3.62534 16.3379C3.49294 16.2675 3.36618 16.2111 3.34647 16.2111C3.32675 16.2111 3.30985 16.197 3.30985 16.183C3.30985 16.1661 3.28449 16.1548 3.25351 16.1548C3.22252 16.1548 3.19717 16.1407 3.19717 16.1266C3.19717 16.1097 3.17463 16.0985 3.14647 16.0985C3.1183 16.0985 3.07886 16.0731 3.05632 16.0421C3.03379 16.0111 2.99435 15.9858 2.96618 15.9858C2.93801 15.9858 2.91548 15.9717 2.91548 15.9576C2.91548 15.9407 2.89013 15.9294 2.85914 15.9294C2.82816 15.9294 2.8028 15.9182 2.8028 15.9069C2.8028 15.8928 2.769 15.8647 2.72675 15.8421C2.68168 15.8196 2.64224 15.797 2.63379 15.7886C2.62534 15.7801 2.569 15.7379 2.50703 15.69C2.44506 15.6449 2.34647 15.5604 2.29013 15.5013C2.23379 15.4421 2.18027 15.3942 2.169 15.3942C2.12393 15.3942 1.79999 15.0168 1.7521 14.9097C1.7352 14.8647 1.70985 14.8308 1.69858 14.8308C1.68449 14.8308 1.67604 14.8055 1.67604 14.7745C1.67604 14.7435 1.66478 14.7182 1.64787 14.7182C1.63379 14.7182 1.6197 14.6872 1.6197 14.6478C1.6197 14.6083 1.60844 14.5773 1.59154 14.5773C1.57745 14.5773 1.56337 14.521 1.56337 14.4506C1.56337 14.3801 1.5521 14.3238 1.5352 14.3238C1.51548 14.3238 1.50703 13.797 1.50703 12.8027C1.50703 11.9266 1.5183 11.2816 1.53238 11.2816C1.54647 11.2816 1.59435 11.3154 1.64224 11.3576ZM1.69858 16.1463C1.75492 16.2055 1.85351 16.29 1.91548 16.3379C1.97745 16.383 2.04506 16.4365 2.06478 16.4534C2.08168 16.4731 2.12393 16.4985 2.15492 16.5069C2.1859 16.5154 2.21125 16.5351 2.21125 16.5463C2.21125 16.5604 2.25069 16.5858 2.29576 16.6055C2.34365 16.6252 2.38027 16.6506 2.38027 16.6647C2.38027 16.6787 2.39999 16.69 2.42252 16.69C2.44506 16.69 2.46478 16.7013 2.46478 16.7182C2.46478 16.7323 2.49013 16.7463 2.52111 16.7463C2.5521 16.7463 2.57745 16.7576 2.57745 16.7745C2.57745 16.7886 2.6028 16.8027 2.63379 16.8027C2.66478 16.8027 2.69013 16.8139 2.69013 16.8308C2.69013 16.8449 2.70985 16.859 2.73238 16.859C2.75492 16.859 2.77463 16.8675 2.77463 16.8816C2.77463 16.8928 2.81689 16.9182 2.86759 16.9407C2.96337 16.983 3.57182 17.2703 3.65351 17.3125C3.68168 17.3266 3.72393 17.3379 3.74647 17.3379C3.769 17.3379 3.78872 17.3492 3.78872 17.3661C3.78872 17.3801 3.82816 17.3942 3.87323 17.3942C3.92111 17.3942 3.95773 17.4055 3.95773 17.4224C3.95773 17.4365 3.98872 17.4506 4.02816 17.4506C4.06759 17.4506 4.09858 17.4618 4.09858 17.4787C4.09858 17.4928 4.13801 17.5069 4.18309 17.5069C4.23097 17.5069 4.26759 17.5182 4.26759 17.5351C4.26759 17.5492 4.30703 17.5632 4.3521 17.5632C4.39999 17.5632 4.43661 17.5745 4.43661 17.5914C4.43661 17.6055 4.47323 17.6196 4.5183 17.6196C4.56618 17.6196 4.61125 17.6308 4.6197 17.6478C4.62816 17.6618 4.67323 17.6759 4.7183 17.6759C4.76337 17.6759 4.80562 17.6872 4.81407 17.7013C4.82252 17.7154 4.86478 17.7323 4.90703 17.7407C5.02816 17.7661 5.19717 17.8083 5.36618 17.8562C5.56055 17.9125 6.0197 18.0139 6.169 18.0337C6.23097 18.0421 6.29294 18.059 6.30703 18.0731C6.32393 18.0872 6.40844 18.0985 6.49858 18.0985C6.58872 18.0985 6.66196 18.1097 6.66196 18.1266C6.66196 18.1435 6.73801 18.1548 6.83097 18.1548C6.92393 18.1548 6.99999 18.1661 6.99999 18.183C6.99999 18.1999 7.09858 18.2111 7.23942 18.2111C7.38027 18.2111 7.47886 18.2224 7.47886 18.2393C7.47886 18.2562 7.57463 18.2675 7.71266 18.2675C7.84224 18.2675 7.95773 18.2787 7.97463 18.2928C8.01689 18.3351 8.67886 18.3576 9.99999 18.3576C11.3211 18.3576 11.9831 18.3351 12.0282 18.2928C12.0422 18.2787 12.1577 18.2675 12.2873 18.2675C12.4253 18.2675 12.5211 18.2562 12.5211 18.2393C12.5211 18.2224 12.6197 18.2111 12.7606 18.2111C12.9014 18.2111 13 18.1999 13 18.183C13 18.1661 13.076 18.1548 13.169 18.1548C13.262 18.1548 13.338 18.1435 13.338 18.1266C13.338 18.1097 13.4113 18.0985 13.5042 18.0985C13.5972 18.0985 13.6817 18.0844 13.6901 18.0703C13.6986 18.0534 13.7465 18.0421 13.7944 18.0421C13.8451 18.0421 13.9211 18.0308 13.969 18.0168C14.0169 17.9999 14.1324 17.9745 14.2253 17.9548C14.3183 17.9379 14.4845 17.8956 14.5915 17.8675C14.7014 17.8365 14.8338 17.7999 14.8873 17.7886C14.9408 17.7745 15.0366 17.7492 15.0986 17.7323C15.1606 17.7125 15.2535 17.6928 15.3042 17.6844C15.3521 17.6759 15.3944 17.659 15.3944 17.6449C15.3944 17.6308 15.4338 17.6196 15.4789 17.6196C15.5267 17.6196 15.5634 17.6055 15.5634 17.5914C15.5634 17.5745 15.6028 17.5632 15.6479 17.5632C15.6958 17.5632 15.7324 17.5492 15.7324 17.5351C15.7324 17.5182 15.7718 17.5069 15.8169 17.5069C15.8648 17.5069 15.9014 17.4928 15.9014 17.4787C15.9014 17.4618 15.9324 17.4506 15.9718 17.4506C16.0113 17.4506 16.0422 17.4365 16.0422 17.4224C16.0422 17.4055 16.0817 17.3942 16.1267 17.3942C16.1746 17.3942 16.2113 17.3801 16.2113 17.3661C16.2113 17.3492 16.231 17.3379 16.2535 17.3379C16.276 17.3379 16.3183 17.3266 16.3465 17.3125C16.5775 17.1942 17.1775 16.9154 17.2 16.9154C17.2141 16.9154 17.2253 16.9013 17.2253 16.8872C17.2253 16.8703 17.2507 16.859 17.2817 16.859C17.3127 16.859 17.338 16.8449 17.338 16.8308C17.338 16.8139 17.3577 16.8027 17.3803 16.8027C17.4028 16.8027 17.4225 16.7886 17.4225 16.7745C17.4225 16.7576 17.4422 16.7463 17.4648 16.7463C17.4873 16.7463 17.507 16.7323 17.507 16.7182C17.507 16.7013 17.5324 16.69 17.5634 16.69C17.5944 16.69 17.6197 16.6759 17.6197 16.6618C17.6197 16.6449 17.6394 16.6337 17.662 16.6337C17.6873 16.6337 17.738 16.6027 17.7775 16.5632C17.8169 16.5238 17.8591 16.4928 17.8732 16.4928C17.8873 16.4928 17.9155 16.4759 17.9352 16.4562C17.9549 16.4365 18.0225 16.383 18.0845 16.3379C18.1465 16.29 18.2451 16.2055 18.3014 16.1463C18.5042 15.9407 18.4929 15.8647 18.4929 17.5632C18.4929 18.5576 18.4845 19.0844 18.4648 19.0844C18.4507 19.0844 18.4366 19.1407 18.4366 19.2111C18.4366 19.2816 18.4253 19.3379 18.4084 19.3379C18.3944 19.3379 18.3803 19.3689 18.3803 19.4083C18.3803 19.4478 18.369 19.4787 18.3577 19.4787C18.3436 19.4787 18.3183 19.5238 18.2958 19.5773C18.2732 19.6308 18.2479 19.6759 18.2338 19.6759C18.2225 19.6759 18.2113 19.6956 18.2113 19.7182C18.2113 19.7548 18.0113 19.9886 17.8507 20.1379C17.8169 20.1689 17.7324 20.2506 17.662 20.3154C17.5944 20.383 17.5211 20.4365 17.4986 20.4365C17.4789 20.4365 17.4451 20.4618 17.4225 20.4928C17.4 20.5238 17.3662 20.5492 17.3465 20.5492C17.3267 20.5492 17.3098 20.5604 17.3098 20.5773C17.3098 20.5914 17.2929 20.6055 17.2732 20.6055C17.2535 20.6055 17.2084 20.6308 17.1746 20.6618C17.1408 20.6928 17.1014 20.7182 17.0845 20.7182C17.0563 20.7182 17.0253 20.7407 16.9296 20.8252C16.9098 20.8421 16.8704 20.859 16.8479 20.859C16.8225 20.859 16.8028 20.8703 16.8028 20.8872C16.8028 20.9013 16.7775 20.9154 16.7465 20.9154C16.7155 20.9154 16.6901 20.9266 16.6901 20.9435C16.6901 20.9576 16.6648 20.9717 16.6338 20.9717C16.6028 20.9717 16.5775 20.983 16.5775 20.9999C16.5775 21.0139 16.5521 21.028 16.5211 21.028C16.4901 21.028 16.4648 21.0393 16.4648 21.0562C16.4648 21.0703 16.4338 21.0844 16.3944 21.0844C16.3549 21.0844 16.3239 21.0956 16.3239 21.1125C16.3239 21.1266 16.2986 21.1407 16.2676 21.1407C16.2366 21.1407 16.2113 21.152 16.2113 21.1689C16.2113 21.183 16.1859 21.197 16.1577 21.197C16.1267 21.197 16.0929 21.2083 16.0845 21.2252C16.076 21.2393 16.0366 21.2534 15.9972 21.2534C15.9606 21.2534 15.9296 21.2647 15.9296 21.2816C15.9296 21.2956 15.8986 21.3097 15.8591 21.3097C15.8197 21.3097 15.7887 21.321 15.7887 21.3379C15.7887 21.352 15.7521 21.3661 15.707 21.3661C15.662 21.3661 15.6197 21.3745 15.6141 21.3886C15.6028 21.4168 14.9887 21.6196 14.9155 21.6196C14.8845 21.6196 14.8591 21.6308 14.8591 21.6449C14.8591 21.659 14.8141 21.6787 14.7606 21.6872C14.707 21.6956 14.6169 21.7125 14.5634 21.721C14.5098 21.7294 14.4563 21.7492 14.4479 21.7632C14.4394 21.7773 14.3831 21.7886 14.3211 21.7886C14.262 21.7886 14.2113 21.7999 14.2113 21.8168C14.2113 21.8308 14.1493 21.8449 14.0704 21.8449C13.9944 21.8449 13.9296 21.8562 13.9296 21.8731C13.9296 21.8872 13.8676 21.9013 13.7887 21.9013C13.7127 21.9013 13.6479 21.9125 13.6479 21.9294C13.6479 21.9435 13.5775 21.9576 13.4929 21.9576C13.4084 21.9576 13.338 21.9689 13.338 21.983C13.338 21.997 13.2591 22.0139 13.1634 22.0252C13.0648 22.0337 12.8901 22.0534 12.7746 22.0703C12.2 22.1435 12.0591 22.1576 11.7606 22.183C10.231 22.3069 8.60844 22.2647 7.19717 22.0675C7.09576 22.0534 6.9352 22.0337 6.83942 22.0252C6.74083 22.0139 6.66196 21.997 6.66196 21.983C6.66196 21.9689 6.59154 21.9576 6.50703 21.9576C6.42252 21.9576 6.3521 21.9435 6.3521 21.9294C6.3521 21.9125 6.29013 21.9013 6.21125 21.9013C6.1352 21.9013 6.07041 21.8872 6.07041 21.8731C6.07041 21.8562 6.00844 21.8449 5.92956 21.8449C5.85351 21.8449 5.78872 21.8308 5.78872 21.8168C5.78872 21.7999 5.74647 21.7886 5.69294 21.7886C5.63942 21.7886 5.58872 21.7773 5.58027 21.7632C5.57182 21.7492 5.51548 21.7323 5.45914 21.7238C5.31548 21.7041 5.19435 21.6759 5.12675 21.6478C5.09576 21.6365 4.92393 21.5801 4.74647 21.5238C4.43661 21.4252 4.34083 21.3886 4.23379 21.3351C4.20562 21.321 4.15773 21.3097 4.12675 21.3097C4.09576 21.3097 4.07041 21.2956 4.07041 21.2816C4.07041 21.2647 4.03379 21.2534 3.9859 21.2534C3.94083 21.2534 3.90139 21.2393 3.90139 21.2252C3.90139 21.2083 3.87604 21.197 3.84506 21.197C3.81407 21.197 3.78872 21.183 3.78872 21.1689C3.78872 21.152 3.76337 21.1407 3.73238 21.1407C3.70139 21.1407 3.67604 21.1266 3.67604 21.1125C3.67604 21.0956 3.64506 21.0844 3.60562 21.0844C3.56618 21.0844 3.5352 21.0703 3.5352 21.0562C3.5352 21.0393 3.50985 21.028 3.47886 21.028C3.44787 21.028 3.42252 21.0139 3.42252 20.9999C3.42252 20.983 3.39717 20.9717 3.36618 20.9717C3.3352 20.9717 3.30985 20.9632 3.30985 20.9492C3.30985 20.9294 3.17463 20.859 3.1352 20.859C3.11266 20.859 3.07604 20.8337 2.9859 20.752C2.96618 20.7351 2.93238 20.7182 2.91548 20.7182C2.89858 20.7182 2.85914 20.6928 2.82534 20.6618C2.79154 20.6308 2.74647 20.6055 2.72675 20.6055C2.70703 20.6055 2.69013 20.5914 2.69013 20.5773C2.69013 20.5604 2.67323 20.5492 2.65351 20.5492C2.63379 20.5492 2.59999 20.5238 2.57745 20.4928C2.55492 20.4618 2.52111 20.4365 2.50139 20.4365C2.47886 20.4365 2.40844 20.383 2.34083 20.3154C2.27323 20.2506 2.17463 20.1576 2.12393 20.1097C1.98027 19.9773 1.78872 19.752 1.78872 19.7125C1.78872 19.6928 1.77745 19.6759 1.76618 19.6759C1.7521 19.6759 1.72675 19.6308 1.70421 19.5773C1.68168 19.5238 1.65632 19.4787 1.64224 19.4787C1.63097 19.4787 1.6197 19.4478 1.6197 19.4083C1.6197 19.3689 1.60844 19.3379 1.59154 19.3379C1.57745 19.3379 1.56337 19.2816 1.56337 19.2111C1.56337 19.1407 1.5521 19.0844 1.5352 19.0844C1.51548 19.0844 1.50703 18.5576 1.50703 17.5632C1.50703 15.8647 1.49576 15.9407 1.69858 16.1463Z" fill="white"/>
</svg>
