<svg width="18" height="18" viewBox="0 0 18 18" fill="none" xmlns="http://www.w3.org/2000/svg">
<path d="M9.56939e-05 6.4577C-0.00228152 6.6034 0.0396819 6.74638 0.120422 6.86768C0.201162 6.98898 0.316865 7.08288 0.45219 7.13692L7.35291 9.89764L10.1136 16.7991C10.167 16.9326 10.2591 17.047 10.3781 17.1276C10.4971 17.2082 10.6376 17.2512 10.7813 17.2512H10.7928C10.9384 17.2489 11.0799 17.2024 11.1985 17.118C11.317 17.0335 11.4072 16.915 11.457 16.7782L17.207 0.965731C17.254 0.837093 17.2634 0.697684 17.2339 0.563921C17.2044 0.430158 17.1372 0.307612 17.0404 0.210716C16.9436 0.113819 16.8211 0.046607 16.6874 0.0169954C16.5536 -0.0126162 16.4142 -0.00339426 16.2855 0.0435749L0.473033 5.79357C0.336159 5.84348 0.217659 5.93376 0.13321 6.05248C0.0487617 6.17119 0.00234336 6.31275 9.56939e-05 6.45842V6.4577Z" fill="white"/>
</svg>
