<svg width="28" height="28" viewBox="0 0 28 28" fill="none" xmlns="http://www.w3.org/2000/svg">
<path d="M12.9453 0.910389C10.4316 1.1389 8.11133 2.02367 6.08984 3.52953C5.375 4.06859 4.0625 5.37523 3.53516 6.09008C2.19336 7.90062 1.41992 9.70531 1.03906 11.9495C0.933594 12.553 0.910156 12.9162 0.910156 14.0002C0.910156 15.0842 0.933594 15.4475 1.03906 16.051C1.42578 18.2952 2.19336 20.1057 3.53516 21.9104C4.0625 22.6194 5.375 23.9319 6.08984 24.4651C7.89453 25.8127 9.78711 26.6096 12.0957 26.9846C12.9805 27.1311 14.9902 27.1311 15.916 26.9905C18.1426 26.6389 20.082 25.8245 21.9102 24.4651C22.625 23.9319 23.9316 22.6252 24.4648 21.9104C26.0938 19.719 26.9668 17.2991 27.1016 14.6155L27.1426 13.8362L26.9902 13.6838L26.8379 13.5315H25.25C23.2812 13.5315 23.416 13.467 23.3574 14.4866C23.1055 18.8284 20.0293 22.3557 15.7285 23.2112C14.8027 23.3987 13.1914 23.3987 12.2598 23.2112C8.43359 22.4495 5.55078 19.5608 4.78906 15.7287C4.61328 14.8674 4.60742 13.2034 4.76562 12.3596C5.50391 8.48656 8.4043 5.55687 12.2598 4.7893C12.7988 4.68383 13.1094 4.66039 14 4.66039C15.2188 4.66039 15.9219 4.76586 16.9355 5.09984C17.498 5.28734 18.4062 5.68578 18.5527 5.80883C18.6172 5.86156 18.4648 6.0432 17.7207 6.7932C16.9238 7.59594 16.8125 7.7307 16.8125 7.90062C16.8125 8.02367 16.8652 8.14086 16.959 8.22875L17.0996 8.37523H20.5625H24.0254L24.166 8.22875L24.3125 8.08812V4.62523V1.16234L24.166 1.02172C24.0781 0.927967 23.9609 0.875233 23.8379 0.875233C23.668 0.875233 23.5156 1.00414 22.5254 1.98851C21.9102 2.59789 21.3828 3.1018 21.3535 3.1018C21.3184 3.1018 21.1133 2.97875 20.8848 2.83226C19.5957 2.00023 17.8145 1.33812 16.0801 1.04515C15.3945 0.933826 13.5781 0.851795 12.9453 0.910389ZM15.1777 1.87719C16.0977 1.97094 16.9297 2.14672 17.8086 2.43383C18.582 2.68578 19.8359 3.26586 20.4102 3.635L20.6973 3.81664L20.0234 4.48461L19.3555 5.15844L18.6465 4.80687C15.7227 3.33031 12.3184 3.32445 9.41211 4.77758C4.31445 7.3264 2.23438 13.5256 4.77734 18.5823C7.34375 23.6916 13.5078 25.7659 18.5762 23.2287C20.6035 22.2151 22.2207 20.5979 23.2168 18.594C23.8203 17.387 24.1191 16.3088 24.2832 14.803L24.3184 14.469H25.2559H26.1875L26.1523 14.8909C25.6777 20.8323 21.084 25.5315 15.1777 26.1291C10.1738 26.633 5.28711 23.9026 3.06641 19.3616C0.113281 13.3088 2.60352 6.01976 8.64453 3.06664C10.6719 2.0764 12.9922 1.64867 15.1777 1.87719ZM23.375 4.9768V7.43773H20.9023H18.4238L20.8848 4.9768C22.2383 3.62328 23.3516 2.51586 23.3574 2.51586C23.3691 2.51586 23.375 3.62328 23.375 4.9768Z" fill="white"/>
<path d="M15.125 6.13086C15.0606 6.18945 13.4082 8.26367 11.457 10.7422C7.63673 15.5879 7.74806 15.4238 8.05275 15.7285L8.19337 15.875H10.1621H12.125V18.7754V21.6816L12.2715 21.8223C12.4414 21.998 12.7051 22.0156 12.875 21.8633C12.9395 21.8105 14.5918 19.7363 16.543 17.2578C20.3633 12.4121 20.252 12.5762 19.9473 12.2715L19.8067 12.125H17.8379H15.875V9.22461V6.31836L15.7285 6.17773C15.5586 6.00195 15.2949 5.98437 15.125 6.13086ZM15.0723 12.9277C15.166 13.0215 15.3477 13.0332 16.9063 13.0625L18.6348 13.0918L15.8633 16.6016L13.0918 20.1113L13.0625 17.6445C13.0332 15.3769 13.0274 15.166 12.9277 15.0723C12.834 14.9785 12.6524 14.9668 11.0938 14.9375L9.36525 14.9082L12.1367 11.3984L14.9082 7.88867L14.9375 10.3555C14.9668 12.623 14.9727 12.834 15.0723 12.9277Z" fill="white"/>
</svg>
