<svg width="40" height="40" viewBox="0 0 40 40" fill="none" xmlns="http://www.w3.org/2000/svg">
<circle cx="20" cy="20" r="20" fill="#EAEBFA"/>
<path d="M20.0013 11.25C14.168 11.25 9.1863 14.8783 7.16797 20C9.1863 25.1217 14.168 28.75 20.0013 28.75C25.8346 28.75 30.8163 25.1217 32.8346 20C30.8163 14.8783 25.8346 11.25 20.0013 11.25ZM20.0013 25.8333C16.7813 25.8333 14.168 23.22 14.168 20C14.168 16.78 16.7813 14.1667 20.0013 14.1667C23.2213 14.1667 25.8346 16.78 25.8346 20C25.8346 23.22 23.2213 25.8333 20.0013 25.8333ZM20.0013 16.5C18.0646 16.5 16.5013 18.0633 16.5013 20C16.5013 21.9367 18.0646 23.5 20.0013 23.5C21.938 23.5 23.5013 21.9367 23.5013 20C23.5013 18.0633 21.938 16.5 20.0013 16.5Z" fill="#444597"/>
</svg>
