<svg width="40" height="40" viewBox="0 0 40 40" fill="none" xmlns="http://www.w3.org/2000/svg">
<path opacity="0.8" d="M21.4993 4.2L21.4493 4.31667L16.616 15.5333H11.866C10.7327 15.5333 9.66602 15.75 8.66602 16.1833L11.5827 9.21667L11.6493 9.06667L11.7493 8.8C11.7993 8.68334 11.8327 8.58333 11.8827 8.5C14.066 3.45 16.5327 2.3 21.4993 4.2Z" fill="white"/>
<path d="M30.4839 15.8667C29.7339 15.65 28.9505 15.5333 28.1339 15.5333H16.6172L21.4505 4.31666L21.5005 4.2C21.7339 4.28333 21.9839 4.4 22.2339 4.48333L25.9172 6.03333C27.9672 6.88333 29.4005 7.76666 30.2839 8.83333C30.4339 9.03333 30.5672 9.21666 30.7005 9.43333C30.8505 9.66666 30.9672 9.9 31.0339 10.15C31.1005 10.3 31.1505 10.4333 31.1839 10.5833C31.6172 12 31.3505 13.7167 30.4839 15.8667Z" fill="white"/>
<path opacity="0.4" d="M36.2658 23.6667V26.9167C36.2658 27.25 36.2491 27.5833 36.2324 27.9C35.9158 33.7333 32.6658 36.6667 26.4991 36.6667H13.4991C13.0824 36.6667 12.6991 36.6333 12.3158 36.5833C7.01575 36.2333 4.18242 33.4 3.81576 28.1C3.76576 27.7 3.73242 27.3167 3.73242 26.9167V23.6667C3.73242 20.3167 5.76575 17.4333 8.66575 16.1833C9.66575 15.75 10.7324 15.5333 11.8658 15.5333H28.1324C28.9491 15.5333 29.7324 15.65 30.4824 15.8667C33.8158 16.8833 36.2658 19.9833 36.2658 23.6667Z" fill="white"/>
<path opacity="0.6" d="M11.5824 9.21667L8.66575 16.1833C5.76575 17.4333 3.73242 20.3167 3.73242 23.6667V18.7833C3.73242 14.05 7.09909 10.1 11.5824 9.21667Z" fill="white"/>
<path opacity="0.6" d="M36.2658 18.7833V23.6667C36.2658 19.9833 33.8158 16.8833 30.4824 15.8667C31.3491 13.7167 31.6158 12 31.1824 10.5833C31.1491 10.4333 31.0991 10.3 31.0324 10.15C34.1491 11.7667 36.2658 15.05 36.2658 18.7833Z" fill="white"/>
</svg>
