<svg width="38" height="32" viewBox="0 0 38 32" fill="none" xmlns="http://www.w3.org/2000/svg">
<mask id="path-1-inside-1_196_195" fill="white">
<path d="M32.5091 7.49996C32.6417 7.49996 32.7689 7.44728 32.8627 7.35351C32.9564 7.25974 33.0091 7.13256 33.0091 6.99996V5.33496C33.0086 4.90069 32.8358 4.48437 32.5288 4.1773C32.2217 3.87023 31.8054 3.69748 31.3711 3.69696H28.6841L28.0711 1.88796C28.0294 1.76493 27.9415 1.66295 27.826 1.6036C27.7105 1.54424 27.5764 1.53218 27.4521 1.56996L12.8991 5.99396C12.7787 6.0379 12.6796 6.12636 12.6224 6.24111C12.5652 6.35587 12.5542 6.48818 12.5916 6.61082C12.6291 6.73346 12.7121 6.83708 12.8236 6.90036C12.9351 6.96363 13.0666 6.98174 13.1911 6.95096L27.2801 2.66696L28.6231 6.63196C28.6657 6.75754 28.7564 6.86106 28.8753 6.91976C28.9942 6.97846 29.1315 6.98752 29.2571 6.94496C29.3827 6.90239 29.4862 6.81168 29.5449 6.69278C29.6036 6.57388 29.6127 6.43654 29.5701 6.31096L29.0231 4.69596H31.3721C31.7241 4.69596 32.0101 4.98196 32.0101 5.33396V6.99996C32.0091 7.27596 32.2331 7.49996 32.5091 7.49996Z"/>
</mask>
<path d="M32.5091 7.49996C32.6417 7.49996 32.7689 7.44728 32.8627 7.35351C32.9564 7.25974 33.0091 7.13256 33.0091 6.99996V5.33496C33.0086 4.90069 32.8358 4.48437 32.5288 4.1773C32.2217 3.87023 31.8054 3.69748 31.3711 3.69696H28.6841L28.0711 1.88796C28.0294 1.76493 27.9415 1.66295 27.826 1.6036C27.7105 1.54424 27.5764 1.53218 27.4521 1.56996L12.8991 5.99396C12.7787 6.0379 12.6796 6.12636 12.6224 6.24111C12.5652 6.35587 12.5542 6.48818 12.5916 6.61082C12.6291 6.73346 12.7121 6.83708 12.8236 6.90036C12.9351 6.96363 13.0666 6.98174 13.1911 6.95096L27.2801 2.66696L28.6231 6.63196C28.6657 6.75754 28.7564 6.86106 28.8753 6.91976C28.9942 6.97846 29.1315 6.98752 29.2571 6.94496C29.3827 6.90239 29.4862 6.81168 29.5449 6.69278C29.6036 6.57388 29.6127 6.43654 29.5701 6.31096L29.0231 4.69596H31.3721C31.7241 4.69596 32.0101 4.98196 32.0101 5.33396V6.99996C32.0091 7.27596 32.2331 7.49996 32.5091 7.49996Z" fill="black"/>
<path d="M33.0091 5.33496H35.0091L35.0091 5.33252L33.0091 5.33496ZM31.3711 3.69696L31.3735 1.69696H31.3711V3.69696ZM28.6841 3.69696L26.7899 4.33883L27.2501 5.69696H28.6841V3.69696ZM28.0711 1.88796L26.1768 2.5295L26.1769 2.52983L28.0711 1.88796ZM27.4521 1.56996L26.8704 -0.343586L26.8704 -0.343582L27.4521 1.56996ZM12.8991 5.99396L12.3174 4.08042L12.265 4.09634L12.2136 4.1151L12.8991 5.99396ZM13.1911 6.95096L13.6713 8.89246L13.7225 8.87979L13.7729 8.86445L13.1911 6.95096ZM27.2801 2.66696L29.1744 2.02534L28.5526 0.189615L26.6983 0.753458L27.2801 2.66696ZM28.6231 6.63196L26.7288 7.27358L26.729 7.274L28.6231 6.63196ZM29.5701 6.31096L27.6758 6.95255L27.676 6.953L29.5701 6.31096ZM29.0231 4.69596V2.69596H26.2341L27.1288 5.33755L29.0231 4.69596ZM32.0101 6.99996L34.0101 7.0072V6.99996H32.0101ZM32.5091 9.49996C33.1721 9.49996 33.808 9.23656 34.2769 8.76772L31.4485 5.93929C31.7298 5.65799 32.1113 5.49996 32.5091 5.49996V9.49996ZM34.2769 8.76772C34.7457 8.29888 35.0091 7.66299 35.0091 6.99996H31.0091C31.0091 6.60213 31.1671 6.2206 31.4485 5.93929L34.2769 8.76772ZM35.0091 6.99996V5.33496H31.0091V6.99996H35.0091ZM35.0091 5.33252C35.0079 4.36867 34.6245 3.44463 33.943 2.76309L31.1146 5.59151C31.0471 5.52411 31.0092 5.43272 31.0091 5.33739L35.0091 5.33252ZM33.943 2.76309C33.2614 2.08154 32.3374 1.69813 31.3735 1.69696L31.3687 5.69695C31.2733 5.69684 31.182 5.65892 31.1146 5.59151L33.943 2.76309ZM31.3711 1.69696H28.6841V5.69696H31.3711V1.69696ZM30.5783 3.05508L29.9653 1.24608L26.1769 2.52983L26.7899 4.33883L30.5783 3.05508ZM29.9654 1.24641C29.7571 0.631306 29.3176 0.12139 28.7399 -0.17538L26.9121 3.38257C26.5655 3.20451 26.3018 2.89856 26.1768 2.5295L29.9654 1.24641ZM28.7399 -0.17538C28.1623 -0.472146 27.4918 -0.53247 26.8704 -0.343586L28.0338 3.4835C27.661 3.59683 27.2587 3.56063 26.9121 3.38257L28.7399 -0.17538ZM26.8704 -0.343582L12.3174 4.08042L13.4808 7.90749L28.0338 3.48349L26.8704 -0.343582ZM12.2136 4.1151C11.6123 4.33447 11.118 4.77605 10.8325 5.3489L14.4124 7.13332C14.2413 7.47667 13.945 7.74133 13.5846 7.87281L12.2136 4.1151ZM10.8325 5.3489C10.5469 5.92176 10.4919 6.58229 10.6787 7.1945L14.5046 6.02714C14.6165 6.39408 14.5835 6.78997 14.4124 7.13332L10.8325 5.3489ZM10.6787 7.1945C10.8655 7.80671 11.2799 8.324 11.8366 8.63986L13.8106 5.16085C14.1442 5.35017 14.3926 5.66021 14.5046 6.02714L10.6787 7.1945ZM11.8366 8.63986C12.3933 8.95573 13.0499 9.04613 13.6713 8.89246L12.7109 5.00946C13.0833 4.91735 13.4769 4.97153 13.8106 5.16085L11.8366 8.63986ZM13.7729 8.86445L27.8619 4.58045L26.6983 0.753458L12.6093 5.03746L13.7729 8.86445ZM25.3858 3.30858L26.7288 7.27358L30.5174 5.99033L29.1744 2.02534L25.3858 3.30858ZM26.729 7.274C26.9418 7.90195 27.3954 8.41961 27.9899 8.71312L29.7607 5.1264C30.1174 5.30251 30.3895 5.61312 30.5173 5.98991L26.729 7.274ZM27.9899 8.71312C28.5844 9.00663 29.2712 9.05195 29.8992 8.8391L28.6151 5.05081C28.9918 4.9231 29.4039 4.95029 29.7607 5.1264L27.9899 8.71312ZM29.8992 8.8391C30.5271 8.62625 31.0448 8.17267 31.3383 7.57814L27.7516 5.80742C27.9277 5.45069 28.2383 5.17853 28.6151 5.05081L29.8992 8.8391ZM31.3383 7.57814C31.6318 6.98362 31.6771 6.29684 31.4643 5.66891L27.676 6.953C27.5483 6.57623 27.5754 6.16415 27.7516 5.80742L31.3383 7.57814ZM31.4644 5.66936L30.9174 4.05436L27.1288 5.33755L27.6758 6.95255L31.4644 5.66936ZM29.0231 6.69596H31.3721V2.69596H29.0231V6.69596ZM31.3721 6.69596C30.6195 6.69596 30.0101 6.08652 30.0101 5.33396H34.0101C34.0101 3.87739 32.8287 2.69596 31.3721 2.69596V6.69596ZM30.0101 5.33396V6.99996H34.0101V5.33396H30.0101ZM30.0101 6.99271C30.0051 8.38034 31.1299 9.49996 32.5091 9.49996V5.49996C33.3363 5.49996 34.0131 6.17157 34.0101 7.0072L30.0101 6.99271Z" fill="white" mask="url(#path-1-inside-1_196_195)"/>
<mask id="path-3-inside-2_196_195" fill="white">
<path d="M36.5 14.9998C36.3674 14.9998 36.2402 15.0525 36.1464 15.1463C36.0527 15.24 36 15.3672 36 15.4998C36 15.6324 36.0527 15.7596 36.1464 15.8534C36.2402 15.9471 36.3674 15.9998 36.5 15.9998C36.851 15.9998 37 16.1488 37 16.4998V22.4998C37 22.8508 36.851 22.9998 36.5 22.9998H28.5C28.149 22.9998 28 22.8508 28 22.4998V17.4998C28 17.1488 28.149 16.9998 28.5 16.9998H34.5C34.6326 16.9998 34.7598 16.9471 34.8536 16.8534C34.9473 16.7596 35 16.6324 35 16.4998V10.4998C35 9.58881 34.411 8.99981 33.5 8.99981H3C1.767 8.99981 1 8.23281 1 6.99981C1 5.76681 1.767 4.99981 3 4.99981H8.076L5.05 5.99781C4.98538 6.01644 4.92518 6.04792 4.87301 6.09036C4.82084 6.1328 4.77777 6.18533 4.74638 6.24481C4.71498 6.30428 4.6959 6.36948 4.69029 6.4365C4.68467 6.50351 4.69264 6.57098 4.7137 6.63484C4.73477 6.69871 4.7685 6.75767 4.81289 6.8082C4.85727 6.85873 4.91139 6.89979 4.97201 6.92891C5.03263 6.95804 5.0985 6.97463 5.16568 6.97771C5.23286 6.98078 5.29997 6.97027 5.363 6.94681L23.482 0.973809C23.5444 0.953192 23.6021 0.92049 23.6518 0.877571C23.7016 0.834652 23.7424 0.782356 23.7719 0.723669C23.8014 0.664982 23.8191 0.601054 23.8239 0.535535C23.8287 0.470015 23.8206 0.404187 23.8 0.341809C23.7794 0.279431 23.7467 0.221725 23.7038 0.171985C23.6608 0.122246 23.6085 0.0814466 23.5499 0.0519176C23.4912 0.0223886 23.4272 0.0047079 23.3617 -0.000114964C23.2962 -0.00493783 23.2304 0.00319158 23.168 0.0238091L11.068 4.01381C11.045 4.00981 11.024 3.99981 11 3.99981H3C1.206 3.99981 0 5.20581 0 6.99981V28.9998C0 30.7938 1.206 31.9998 3 31.9998H33.5C34.411 31.9998 35 31.4108 35 30.4998V25.4998C35 25.3672 34.9473 25.24 34.8536 25.1463C34.7598 25.0525 34.6326 24.9998 34.5 24.9998C34.3674 24.9998 34.2402 25.0525 34.1464 25.1463C34.0527 25.24 34 25.3672 34 25.4998V30.4998C34 30.8508 33.851 30.9998 33.5 30.9998H3C1.767 30.9998 1 30.2328 1 28.9998V9.31181C1.513 9.74481 2.192 9.99981 3 9.99981H33.5C33.851 9.99981 34 10.1488 34 10.4998V15.9998H28.5C27.589 15.9998 27 16.5888 27 17.4998V22.4998C27 23.4108 27.589 23.9998 28.5 23.9998H36.5C37.411 23.9998 38 23.4108 38 22.4998V16.4998C38 15.5888 37.411 14.9998 36.5 14.9998Z"/>
</mask>
<path d="M36.5 14.9998C36.3674 14.9998 36.2402 15.0525 36.1464 15.1463C36.0527 15.24 36 15.3672 36 15.4998C36 15.6324 36.0527 15.7596 36.1464 15.8534C36.2402 15.9471 36.3674 15.9998 36.5 15.9998C36.851 15.9998 37 16.1488 37 16.4998V22.4998C37 22.8508 36.851 22.9998 36.5 22.9998H28.5C28.149 22.9998 28 22.8508 28 22.4998V17.4998C28 17.1488 28.149 16.9998 28.5 16.9998H34.5C34.6326 16.9998 34.7598 16.9471 34.8536 16.8534C34.9473 16.7596 35 16.6324 35 16.4998V10.4998C35 9.58881 34.411 8.99981 33.5 8.99981H3C1.767 8.99981 1 8.23281 1 6.99981C1 5.76681 1.767 4.99981 3 4.99981H8.076L5.05 5.99781C4.98538 6.01644 4.92518 6.04792 4.87301 6.09036C4.82084 6.1328 4.77777 6.18533 4.74638 6.24481C4.71498 6.30428 4.6959 6.36948 4.69029 6.4365C4.68467 6.50351 4.69264 6.57098 4.7137 6.63484C4.73477 6.69871 4.7685 6.75767 4.81289 6.8082C4.85727 6.85873 4.91139 6.89979 4.97201 6.92891C5.03263 6.95804 5.0985 6.97463 5.16568 6.97771C5.23286 6.98078 5.29997 6.97027 5.363 6.94681L23.482 0.973809C23.5444 0.953192 23.6021 0.92049 23.6518 0.877571C23.7016 0.834652 23.7424 0.782356 23.7719 0.723669C23.8014 0.664982 23.8191 0.601054 23.8239 0.535535C23.8287 0.470015 23.8206 0.404187 23.8 0.341809C23.7794 0.279431 23.7467 0.221725 23.7038 0.171985C23.6608 0.122246 23.6085 0.0814466 23.5499 0.0519176C23.4912 0.0223886 23.4272 0.0047079 23.3617 -0.000114964C23.2962 -0.00493783 23.2304 0.00319158 23.168 0.0238091L11.068 4.01381C11.045 4.00981 11.024 3.99981 11 3.99981H3C1.206 3.99981 0 5.20581 0 6.99981V28.9998C0 30.7938 1.206 31.9998 3 31.9998H33.5C34.411 31.9998 35 31.4108 35 30.4998V25.4998C35 25.3672 34.9473 25.24 34.8536 25.1463C34.7598 25.0525 34.6326 24.9998 34.5 24.9998C34.3674 24.9998 34.2402 25.0525 34.1464 25.1463C34.0527 25.24 34 25.3672 34 25.4998V30.4998C34 30.8508 33.851 30.9998 33.5 30.9998H3C1.767 30.9998 1 30.2328 1 28.9998V9.31181C1.513 9.74481 2.192 9.99981 3 9.99981H33.5C33.851 9.99981 34 10.1488 34 10.4998V15.9998H28.5C27.589 15.9998 27 16.5888 27 17.4998V22.4998C27 23.4108 27.589 23.9998 28.5 23.9998H36.5C37.411 23.9998 38 23.4108 38 22.4998V16.4998C38 15.5888 37.411 14.9998 36.5 14.9998Z" fill="white"/>
<path d="M8.076 4.99981L8.70243 6.89917L8.076 2.99981V4.99981ZM5.05 5.99781L5.60418 7.9195L5.64051 7.90902L5.67643 7.89717L5.05 5.99781ZM5.363 6.94681L4.73684 5.04736L4.70077 5.05925L4.66517 5.0725L5.363 6.94681ZM23.482 0.973809L24.1082 2.87326L24.1097 2.87277L23.482 0.973809ZM23.168 0.0238091L23.7943 1.92321L23.7957 1.92277L23.168 0.0238091ZM11.068 4.01381L10.7253 5.98423L11.2187 6.07004L11.6943 5.91321L11.068 4.01381ZM1 9.31181L2.29001 7.78346L-1 5.00651V9.31181H1ZM34 15.9998V17.9998H36V15.9998H34ZM36.5 12.9998C35.837 12.9998 35.2011 13.2632 34.7322 13.732L37.5607 16.5605C37.2794 16.8418 36.8978 16.9998 36.5 16.9998V12.9998ZM34.7322 13.732C34.2634 14.2009 34 14.8368 34 15.4998H38C38 15.8976 37.842 16.2792 37.5607 16.5605L34.7322 13.732ZM34 15.4998C34 16.1628 34.2634 16.7987 34.7322 17.2676L37.5607 14.4391C37.842 14.7205 38 15.102 38 15.4998H34ZM34.7322 17.2676C35.2011 17.7364 35.837 17.9998 36.5 17.9998V13.9998C36.8978 13.9998 37.2794 14.1578 37.5607 14.4391L34.7322 17.2676ZM36.5 17.9998C36.4491 17.9998 35.9322 17.9972 35.4674 17.5324C35.0026 17.0676 35 16.5507 35 16.4998H39C39 16.0979 38.9229 15.331 38.2958 14.704C37.6688 14.0769 36.9019 13.9998 36.5 13.9998V17.9998ZM35 16.4998V22.4998H39V16.4998H35ZM35 22.4998C35 22.4489 35.0026 21.932 35.4674 21.4672C35.9322 21.0024 36.4491 20.9998 36.5 20.9998V24.9998C36.9019 24.9998 37.6688 24.9227 38.2958 24.2956C38.9229 23.6686 39 22.9017 39 22.4998H35ZM36.5 20.9998H28.5V24.9998H36.5V20.9998ZM28.5 20.9998C28.5509 20.9998 29.0678 21.0024 29.5326 21.4672C29.9974 21.932 30 22.4489 30 22.4998H26C26 22.9017 26.0771 23.6686 26.7042 24.2956C27.3312 24.9227 28.0981 24.9998 28.5 24.9998V20.9998ZM30 22.4998V17.4998H26V22.4998H30ZM30 17.4998C30 17.5507 29.9974 18.0676 29.5326 18.5324C29.0678 18.9972 28.5509 18.9998 28.5 18.9998V14.9998C28.0981 14.9998 27.3312 15.0769 26.7042 15.704C26.0771 16.331 26 17.0979 26 17.4998H30ZM28.5 18.9998H34.5V14.9998H28.5V18.9998ZM34.5 18.9998C35.163 18.9998 35.7989 18.7364 36.2678 18.2676L33.4393 15.4391C33.7206 15.1578 34.1022 14.9998 34.5 14.9998V18.9998ZM36.2678 18.2676C36.7366 17.7987 37 17.1628 37 16.4998H33C33 16.102 33.158 15.7205 33.4393 15.4391L36.2678 18.2676ZM37 16.4998V10.4998H33V16.4998H37ZM37 10.4998C37 9.60533 36.7021 8.69023 36.0058 7.99397C35.3096 7.29771 34.3945 6.99981 33.5 6.99981V10.9998C33.5165 10.9998 33.3514 10.9964 33.1774 10.8224C33.0034 10.6484 33 10.4833 33 10.4998H37ZM33.5 6.99981H3V10.9998H33.5V6.99981ZM3 6.99981C2.89818 6.99981 2.85877 6.98402 2.86411 6.986C2.8668 6.987 2.87843 6.99169 2.8957 7.00263C2.90417 7.008 2.91343 7.01451 2.92313 7.02226C2.93283 7.03001 2.94248 7.03861 2.95184 7.04797C2.9612 7.05733 2.9698 7.06698 2.97755 7.07668C2.9853 7.08638 2.99181 7.09564 2.99718 7.10411C3.00812 7.12138 3.01281 7.13301 3.01381 7.13569C3.01579 7.14104 3 7.10163 3 6.99981H-1C-1 8.0357 -0.66937 9.08362 0.123411 9.8764C0.916193 10.6692 1.96411 10.9998 3 10.9998V6.99981ZM3 6.99981C3 6.89799 3.01579 6.85858 3.01381 6.86392C3.01281 6.86661 3.00812 6.87824 2.99718 6.89551C2.99181 6.90398 2.9853 6.91324 2.97755 6.92294C2.9698 6.93264 2.9612 6.94229 2.95184 6.95165C2.94248 6.96101 2.93283 6.96961 2.92313 6.97736C2.91343 6.98511 2.90417 6.99162 2.8957 6.99699C2.87843 7.00793 2.8668 7.01262 2.86411 7.01362C2.85877 7.0156 2.89818 6.99981 3 6.99981V2.99981C1.96411 2.99981 0.916193 3.33044 0.123411 4.12322C-0.66937 4.916 -1 5.96392 -1 6.99981H3ZM3 6.99981H8.076V2.99981H3V6.99981ZM7.44957 3.10044L4.42357 4.09844L5.67643 7.89717L8.70243 6.89917L7.44957 3.10044ZM4.49583 4.07612C4.17273 4.16929 3.87175 4.32669 3.6109 4.53889L6.13513 7.64183C5.97862 7.76916 5.79803 7.8636 5.60418 7.9195L4.49583 4.07612ZM3.6109 4.53889C3.35005 4.7511 3.13468 5.01374 2.9777 5.31111L6.51505 7.17851C6.42086 7.35693 6.29164 7.51451 6.13513 7.64183L3.6109 4.53889ZM2.9777 5.31111C2.82072 5.60848 2.72534 5.93446 2.69727 6.26955L6.68331 6.60344C6.66647 6.80449 6.60924 7.00008 6.51505 7.17851L2.9777 5.31111ZM2.69727 6.26955C2.6692 6.60464 2.70902 6.94195 2.81435 7.26129L6.61306 6.0084C6.67626 6.2 6.70015 6.40238 6.68331 6.60344L2.69727 6.26955ZM2.81435 7.26129C2.91967 7.58064 3.08834 7.87545 3.31025 8.12809L6.31552 5.48832C6.44867 5.6399 6.54987 5.81679 6.61306 6.0084L2.81435 7.26129ZM3.31025 8.12809C3.53216 8.38072 3.80276 8.586 4.10586 8.73163L5.83815 5.12619C6.02001 5.21357 6.18237 5.33674 6.31552 5.48832L3.31025 8.12809ZM4.10586 8.73163C4.40896 8.87726 4.73831 8.96024 5.07422 8.97562L5.25714 4.9798C5.45868 4.98903 5.6563 5.03882 5.83815 5.12619L4.10586 8.73163ZM5.07422 8.97562C5.41013 8.99099 5.74569 8.93845 6.06082 8.82112L4.66517 5.0725C4.85426 5.0021 5.05559 4.97057 5.25714 4.9798L5.07422 8.97562ZM5.98916 8.84626L24.1082 2.87326L22.8558 -0.925644L4.73684 5.04736L5.98916 8.84626ZM24.1097 2.87277C24.4214 2.76972 24.7098 2.60628 24.9584 2.39179L22.3452 -0.636646C22.4943 -0.765302 22.6673 -0.86334 22.8543 -0.925151L24.1097 2.87277ZM24.9584 2.39179C25.207 2.17728 25.4109 1.91592 25.5585 1.62262L21.9853 -0.175278C22.0738 -0.351207 22.1961 -0.507981 22.3452 -0.636646L24.9584 2.39179ZM25.5585 1.62262C25.706 1.32934 25.7944 1.00985 25.8185 0.682356L21.8293 0.388713C21.8438 0.192262 21.8968 0.000621243 21.9853 -0.175278L25.5585 1.62262ZM25.8185 0.682356C25.8426 0.354867 25.802 0.0258725 25.699 -0.285847L21.901 0.969465C21.8392 0.782502 21.8149 0.585163 21.8293 0.388713L25.8185 0.682356ZM25.699 -0.285847C25.5959 -0.597577 25.4325 -0.885986 25.218 -1.13459L22.1895 1.47856C22.0609 1.32944 21.9628 1.15644 21.901 0.969465L25.699 -0.285847ZM25.218 -1.13459C25.0035 -1.38319 24.7421 -1.58709 24.4488 -1.73467L22.6509 1.8385C22.475 1.74999 22.3182 1.62768 22.1895 1.47856L25.218 -1.13459ZM24.4488 -1.73467C24.1555 -1.88225 23.836 -1.97062 23.5085 -1.99472L23.2149 1.99449C23.0185 1.98003 22.8268 1.92703 22.6509 1.8385L24.4488 -1.73467ZM23.5085 -1.99472C23.1811 -2.01882 22.8521 -1.97819 22.5403 -1.87515L23.7957 1.92277C23.6087 1.98458 23.4113 2.00895 23.2149 1.99449L23.5085 -1.99472ZM22.5417 -1.87559L10.4417 2.11441L11.6943 5.91321L23.7943 1.92321L22.5417 -1.87559ZM11.4107 2.04339C11.4898 2.05715 11.5496 2.07295 11.5704 2.07855C11.5807 2.08131 11.5889 2.08365 11.5846 2.08244C11.584 2.08226 11.5704 2.07841 11.5551 2.07429C11.5001 2.05946 11.2827 1.99981 11 1.99981V5.99981C10.8665 5.99981 10.7544 5.98582 10.6721 5.97138C10.593 5.95752 10.5334 5.94167 10.5137 5.93633C10.5039 5.93371 10.4959 5.93142 10.5008 5.9328C10.502 5.93316 10.5158 5.93706 10.5317 5.94132C10.5637 5.94992 10.6347 5.96846 10.7253 5.98423L11.4107 2.04339ZM11 1.99981H3V5.99981H11V1.99981ZM3 1.99981C1.6443 1.99981 0.361708 2.46417 -0.586964 3.41285C-1.53563 4.36152 -2 5.64411 -2 6.99981H2C2 6.56151 2.13863 6.3441 2.24146 6.24127C2.34429 6.13844 2.5617 5.99981 3 5.99981V1.99981ZM-2 6.99981V28.9998H2V6.99981H-2ZM-2 28.9998C-2 30.3555 -1.53563 31.6381 -0.586964 32.5868C0.361708 33.5354 1.6443 33.9998 3 33.9998V29.9998C2.5617 29.9998 2.34429 29.8612 2.24146 29.7583C2.13863 29.6555 2 29.4381 2 28.9998H-2ZM3 33.9998H33.5V29.9998H3V33.9998ZM33.5 33.9998C34.3945 33.9998 35.3096 33.7019 36.0058 33.0056C36.7021 32.3094 37 31.3943 37 30.4998H33C33 30.5163 33.0034 30.3512 33.1774 30.1772C33.3514 30.0032 33.5165 29.9998 33.5 29.9998V33.9998ZM37 30.4998V25.4998H33V30.4998H37ZM37 25.4998C37 24.8368 36.7366 24.2009 36.2678 23.732L33.4393 26.5605C33.158 26.2792 33 25.8976 33 25.4998H37ZM36.2678 23.732C35.7989 23.2632 35.163 22.9998 34.5 22.9998V26.9998C34.1022 26.9998 33.7206 26.8418 33.4393 26.5605L36.2678 23.732ZM34.5 22.9998C33.837 22.9998 33.2011 23.2632 32.7322 23.732L35.5607 26.5605C35.2794 26.8418 34.8978 26.9998 34.5 26.9998V22.9998ZM32.7322 23.732C32.2634 24.2009 32 24.8368 32 25.4998H36C36 25.8976 35.842 26.2792 35.5607 26.5605L32.7322 23.732ZM32 25.4998V30.4998H36V25.4998H32ZM32 30.4998C32 30.4489 32.0026 29.932 32.4674 29.4672C32.9322 29.0024 33.4491 28.9998 33.5 28.9998V32.9998C33.9019 32.9998 34.6688 32.9227 35.2958 32.2956C35.9229 31.6686 36 30.9017 36 30.4998H32ZM33.5 28.9998H3V32.9998H33.5V28.9998ZM3 28.9998C2.89818 28.9998 2.85877 28.984 2.86411 28.986C2.8668 28.987 2.87843 28.9917 2.8957 29.0026C2.90417 29.008 2.91343 29.0145 2.92313 29.0223C2.93283 29.03 2.94248 29.0386 2.95184 29.048C2.9612 29.0573 2.9698 29.067 2.97755 29.0767C2.9853 29.0864 2.99181 29.0956 2.99718 29.1041C3.00812 29.1214 3.01281 29.133 3.01381 29.1357C3.01579 29.141 3 29.1016 3 28.9998H-1C-1 30.0357 -0.66937 31.0836 0.123411 31.8764C0.916193 32.6692 1.96411 32.9998 3 32.9998V28.9998ZM3 28.9998V9.31181H-1V28.9998H3ZM-0.290014 10.8402C0.609572 11.5995 1.75462 11.9998 3 11.9998V7.99981C2.62938 7.99981 2.41643 7.89016 2.29001 7.78346L-0.290014 10.8402ZM3 11.9998H33.5V7.99981H3V11.9998ZM33.5 11.9998C33.4491 11.9998 32.9322 11.9972 32.4674 11.5324C32.0026 11.0676 32 10.5507 32 10.4998H36C36 10.0979 35.9229 9.33103 35.2958 8.70397C34.6688 8.07691 33.9019 7.99981 33.5 7.99981V11.9998ZM32 10.4998V15.9998H36V10.4998H32ZM34 13.9998H28.5V17.9998H34V13.9998ZM28.5 13.9998C27.6055 13.9998 26.6904 14.2977 25.9942 14.994C25.2979 15.6902 25 16.6053 25 17.4998H29C29 17.4833 28.9966 17.6484 28.8226 17.8224C28.6486 17.9964 28.4835 17.9998 28.5 17.9998V13.9998ZM25 17.4998V22.4998H29V17.4998H25ZM25 22.4998C25 23.3943 25.2979 24.3094 25.9942 25.0056C26.6904 25.7019 27.6055 25.9998 28.5 25.9998V21.9998C28.4835 21.9998 28.6486 22.0032 28.8226 22.1772C28.9966 22.3512 29 22.5163 29 22.4998H25ZM28.5 25.9998H36.5V21.9998H28.5V25.9998ZM36.5 25.9998C37.3945 25.9998 38.3096 25.7019 39.0058 25.0056C39.7021 24.3094 40 23.3943 40 22.4998H36C36 22.5163 36.0034 22.3512 36.1774 22.1772C36.3514 22.0032 36.5165 21.9998 36.5 21.9998V25.9998ZM40 22.4998V16.4998H36V22.4998H40ZM40 16.4998C40 15.6053 39.7021 14.6902 39.0058 13.994C38.3096 13.2977 37.3945 12.9998 36.5 12.9998V16.9998C36.5165 16.9998 36.3514 16.9964 36.1774 16.8224C36.0034 16.6484 36 16.4833 36 16.4998H40Z" fill="white" mask="url(#path-3-inside-2_196_195)"/>
<path d="M32.5 20C32.5 20.2761 32.2761 20.5 32 20.5C31.7239 20.5 31.5 20.2761 31.5 20C31.5 19.7239 31.7239 19.5 32 19.5C32.2761 19.5 32.5 19.7239 32.5 20Z" fill="black" stroke="white"/>
</svg>
